<?xml version="1.0" encoding="utf-8"?>
<!-- Generator: Adobe Illustrator 24.2.1, SVG Export Plug-In . SVG Version: 6.00 Build 0)  -->
<svg version="1.1" id="Layer_1" xmlns="http://www.w3.org/2000/svg" xmlns:xlink="http://www.w3.org/1999/xlink" x="0px" y="0px"
	 viewBox="0 0 182.8 165.8" style="enable-background:new 0 0 182.8 165.8;" xml:space="preserve">
<style type="text/css">
	.st0{fill:#F1D00A;}
</style>
<g>
	<path class="st0" d="M85.6,86.4c-0.4-2.9,1.8-4.1,3.2-5.2c9.5-7.4,19.8-12.4,32.4-8.8c8.7,2.5,16.8,6.6,25.4,10.3
		c0.1-1.3,0.3-2,0.3-2.7c0-4.4,1.5-9.7-0.6-12.8c-2.3-3.5-8.1-1.1-12.3-1.2c-3.5-0.1-4.4-1.8-3.9-4.6c1.2-6.3-2-7.4-7.3-6.8
		c-2.6,0.3-5.3,0.1-8.3,0.1c0.7-2.9,3-4.1,4.5-5.9c1.4-1.7,3.1-3.3,5.3-5.7c0.1,5.1,2.4,6.7,6.6,5.9c4.1-0.8,5.5,1.2,4.9,5.1
		c-0.9,5.1,1.3,6.5,6.3,6.3c10.6-0.3,10.6-0.1,10.6,10.6c0,0.4,0.1,0.8,0,1.1c-1.9,10,1.2,17.1,11.4,20.3c3.4,1.1,3.9,3.3,2.8,6.7
		c-3.9,12.2-7.5,24.6-11.3,36.9c0.5,0.1,1,0.3,1.2,0.1c11-9.9,14.1-5.1,24.7,1.8c1.7,1.1,1.6,2.1,0.6,3.7c-1.1,1.8-2.2,2.5-4,0.9
		c-1-0.9-2.3-1.4-3.3-2.3c-4.8-4.3-9.1-5-14.2,0.1c-4.1,4-9.3,3.1-13.4-0.6c-4.5-4.1-8.3-4-12.8,0.1c-4.4,4-9.5,4.1-13.9,0.1
		s-8-4.3-12.8-0.4c-5.7,4.7-9.2,4.5-15.2-0.5c-3.8-3.1-6.7-3.1-10.5-0.3c-7.9,5.7-9.6,5.5-17.5-0.6c-2.6-2.1-4.9-2.4-7.7-0.4
		c-2.5,1.8-5.1,3.3-7.6,5c-1.4,1-2.4,0.8-3.2-0.7c-0.6-1.2-2.3-2.6-0.3-3.8c4.2-2.5,7.8-6,12.7-7.5c3-0.9,5.6,0.1,8.1,1.7
		c1.6,1,2.6,2.8,5.5,3.1c-2.4-7.8-4.5-15.4-7.1-22.8c-1.5-4.1-0.5-6.5,3.3-8.5c3.2,10,6.4,19.9,9.8,30.6c6.9-6.4,13.2-5.2,19.3,0.6
		c2.7,2.6,5.1,1.1,7.6-0.6c8.8-6,9.7-6,18.5,0.2c2.6,1.8,5,2.8,7.6,0.3c5.9-5.6,12.1-6.9,19-0.5c3.7-11.9,7.2-23.1,10.6-34.3
		c0.6-2.1,0.3-3.5-1.8-4.7c-13-7.1-26.1-13.8-40.3-18.4c-3.9-1.2-7.5-0.7-11,0.6C100.1,80.7,92.9,83.6,85.6,86.4z"/>
	<path class="st0" d="M56.2,35c-0.2-3.5,5.9-3.8,2.2-8.1c-3.4-3.9-6-4.4-8.9,0c-3.1,4.7-7.1,5.1-12.2,3.4
		c-7.8-2.5-15.7-4.3-23.6-6.2c-1.9-0.5-5-2.3-5.3,1.5c-0.3,3.5-4.9,7.2,0.3,10.6c5.3,3.3,10.5,6.8,15.9,10c2.3,1.4,3.5,2.3,1,5
		c-3.1,3.3,1.6,4,2.7,5.9c1.3,2.2,3,2.1,4.4,0c2.9-4,5.2-2.8,8.1,0.2c10,10.4,10,10.3,1.9,22.1c-2.1,3-4.5,5.8-6,9
		c-2.4,5.2-6,5.9-11,4.6c-3.8-1-7.8-1.4-11.8-2c-1.7-0.3-3.1,0.1-3.6,1.9c-0.5,1.8,1,2.3,2,2.9c2.6,1.6,5.1,3.4,7.7,4.8
		c4.5,2.3,8.3,4.8,4.4,10.4c0.7,0.5,0.9,0.8,1.3,0.8c2.3,0.4,5.5-3.5,6.4-0.5c0.9,2.9-2.9,5.6-5.8,6.7c-3.2,1.2-8.3,0.4-7.7-3.1
		c1.7-10.7-7-11.9-12.7-15.6c-3.5-2.3-4.1-3.8-2.1-7.5c4.1-7.7,4.1-8.6,12.5-6.3c10.1,2.7,17,0.6,21.1-9.3c0.6-1.4,1.5-2.7,2.6-3.7
		c4.2-3.6,0.7-5.7-1.4-8.2c-2.9-3.4-4.2-0.2-5.7,1.3c-1.9,1.9-3.2,2-5.1,0c-3.4-3.6-6.9-7-10.4-10.6c-0.5-0.5-1.6-1.4-1.4-1.7
		c3.2-6.7-3.3-6.9-6.2-8.9C-1.4,36.8-1.5,37,2.2,23.9c2.3-8.4,2.3-8.4,10.6-6.2c7.9,2,15.9,3.7,23.7,6.1c4.5,1.4,7.3,0.4,10.4-2.9
		c6.8-7.3,7.2-7.3,14,0c2.8,3,7.7,4.6,7.5,10.3c0,1.2,4.4,2.4,7.1-0.4c7.2-7.3,15.2-13.8,24-19.1c5.4-3.3,11-6,17.4-6.7
		c3.6-0.4,6.8,0.3,9.7,2.4c1,0.7,2.5,1.7,1,3.1c-1.1,1-1.8,3.6-3.9,2.3c-6.3-3.9-11.8-0.6-17.1,2.1C96.5,20,87.8,27.1,80,35.2
		c-3.7,3.8-7.2,4.6-11.9,2.9C64.1,36.8,60,36,56.2,35z"/>
	<path class="st0" d="M154.1,0.6c-11.9,12.8-23.4,25.1-35,37.4C83.6,76,48,114,12.5,152c-3,3.3-6.1,4.9-11.2,3.6
		c5.6-6,10.9-11.8,16.2-17.5C59.4,93.3,101.4,48.6,143.2,3.7C146.2,0.6,149.1-1,154.1,0.6z"/>
	<path class="st0" d="M59.9,152.7c3.9,0.2,6.4,1.9,8.6,4.1c2.9,2.9,5.5,3,9,0.6c9.5-6.5,9.8-6.5,18.9,0.2c2.8,2.1,4.9,1.8,7.6,0
		c9.7-6.5,9.8-6.6,19.4,0.1c2.9,2,5,1.7,7.6-0.2c9-6.4,9.9-6.6,18.5-0.3c3.7,2.7,6.2,2.2,9.5-0.5c6.5-5.3,19.1-2.8,23.3,4.3
		c1,1.6-0.5,2.4-1,3.5c-0.8,1.7-1.9,1.4-3.2,0.6c-2.4-1.6-4.8-3.1-7.1-4.8c-2.9-2.2-5.2-2-8.1,0.3c-7.6,6.1-9.7,6.2-17.5,0.4
		c-3.7-2.7-6.4-2.9-10,0c-7,5.6-9.6,5.7-16.6,0.2c-3.8-3-6.6-3-10.4,0c-7.3,5.6-9.5,5.5-17-0.4c-3.3-2.6-5.8-2.4-9.1-0.1
		c-8.9,6.2-9.9,6.2-18.4-0.4c-2.5-2-4.6-2.1-7.2-0.3c-2.7,1.8-5.5,3.5-8.1,5.3c-1.6,1.1-2.4,0.3-3.1-1c-0.5-1.1-2.2-2.4-0.5-3.4
		C50.1,157.9,54.4,153.5,59.9,152.7z"/>
</g>
</svg>
