<?xml version="1.0" encoding="utf-8"?>
<!-- Generator: Adobe Illustrator 24.2.1, SVG Export Plug-In . SVG Version: 6.00 Build 0)  -->
<svg version="1.1" id="Layer_1" xmlns="http://www.w3.org/2000/svg" xmlns:xlink="http://www.w3.org/1999/xlink" x="0px" y="0px"
	 viewBox="0 0 500 500" style="enable-background:new 0 0 500 500;" xml:space="preserve">
<style type="text/css">
	.st0{fill:#FFFFFF;}
</style>
<g>
	<path class="st0" d="M239.1,256.6c-0.7-5.4,3.4-7.7,6-9.7c17.8-13.8,37-23.2,60.5-16.4c16.3,4.7,31.4,12.3,47.5,19.2
		c0.2-2.4,0.6-3.7,0.6-5c0-8.2,2.8-18.1-1.1-23.9c-4.3-6.5-15.1-2.1-23-2.2c-6.5-0.2-8.2-3.4-7.3-8.6c2.2-11.8-3.7-13.8-13.6-12.7
		c-4.9,0.6-9.9,0.2-15.5,0.2c1.3-5.4,5.6-7.7,8.4-11c2.6-3.2,5.8-6.2,9.9-10.7c0.2,9.5,4.5,12.5,12.3,11c7.7-1.5,10.3,2.2,9.2,9.5
		c-1.7,9.5,2.4,12.1,11.8,11.8c19.8-0.6,19.8-0.2,19.8,19.8c0,0.7,0.2,1.5,0,2.1c-3.6,18.7,2.2,32,21.3,37.9
		c6.4,2.1,7.3,6.2,5.2,12.5c-7.3,22.8-14,46-21.1,69c0.9,0.2,1.9,0.6,2.2,0.2c20.6-18.5,26.3-9.5,46.2,3.4c3.2,2.1,3,3.9,1.1,6.9
		c-2.1,3.4-4.1,4.7-7.5,1.7c-1.9-1.7-4.3-2.6-6.2-4.3c-9-8-17-9.3-26.5,0.2c-7.7,7.5-17.4,5.8-25-1.1c-8.4-7.7-15.5-7.5-23.9,0.2
		c-8.2,7.5-17.8,7.7-26,0.2s-14.9-8-23.9-0.7c-10.7,8.8-17.2,8.4-28.4-0.9c-7.1-5.8-12.5-5.8-19.6-0.6
		c-14.8,10.7-17.9,10.3-32.7-1.1c-4.9-3.9-9.2-4.5-14.4-0.7c-4.7,3.4-9.5,6.2-14.2,9.3c-2.6,1.9-4.5,1.5-6-1.3
		c-1.1-2.2-4.3-4.9-0.6-7.1c7.8-4.7,14.6-11.2,23.7-14c5.6-1.7,10.5,0.2,15.1,3.2c3,1.9,4.9,5.2,10.3,5.8
		c-4.5-14.6-8.4-28.8-13.3-42.6c-2.8-7.7-0.9-12.1,6.2-15.9c6,18.7,12,37.2,18.3,57.2c12.9-12,24.7-9.7,36.1,1.1
		c5,4.9,9.5,2.1,14.2-1.1c16.4-11.2,18.1-11.2,34.6,0.4c4.9,3.4,9.3,5.2,14.2,0.6c11-10.5,22.6-12.9,35.5-0.9
		c6.9-22.2,13.5-43.2,19.8-64.1c1.1-3.9,0.6-6.5-3.4-8.8c-24.3-13.3-48.8-25.8-75.3-34.4c-7.3-2.2-14-1.3-20.6,1.1
		C266.2,245.9,252.8,251.3,239.1,256.6z"/>
	<path class="st0" d="M184.2,160.5c-0.4-6.5,11-7.1,4.1-15.1c-6.4-7.3-11.2-8.2-16.6,0c-5.8,8.8-13.3,9.5-22.8,6.4
		c-14.6-4.7-29.3-8-44.1-11.6c-3.6-0.9-9.3-4.3-9.9,2.8c-0.6,6.5-9.2,13.5,0.6,19.8c9.9,6.2,19.6,12.7,29.7,18.7
		c4.3,2.6,6.5,4.3,1.9,9.3c-5.8,6.2,3,7.5,5,11c2.4,4.1,5.6,3.9,8.2,0c5.4-7.5,9.7-5.2,15.1,0.4c18.7,19.4,18.7,19.2,3.6,41.3
		c-3.9,5.6-8.4,10.8-11.2,16.8c-4.5,9.7-11.2,11-20.6,8.6c-7.1-1.9-14.6-2.6-22.1-3.7c-3.2-0.6-5.8,0.2-6.7,3.6
		c-0.9,3.4,1.9,4.3,3.7,5.4c4.9,3,9.5,6.4,14.4,9c8.4,4.3,15.5,9,8.2,19.4c1.3,0.9,1.7,1.5,2.4,1.5c4.3,0.7,10.3-6.5,12-0.9
		c1.7,5.4-5.4,10.5-10.8,12.5c-6,2.2-15.5,0.7-14.4-5.8c3.2-20-13.1-22.2-23.7-29.2c-6.5-4.3-7.7-7.1-3.9-14
		c7.7-14.4,7.7-16.1,23.4-11.8c18.9,5,31.8,1.1,39.4-17.4c1.1-2.6,2.8-5,4.9-6.9c7.8-6.7,1.3-10.7-2.6-15.3
		c-5.4-6.4-7.8-0.4-10.7,2.4c-3.6,3.6-6,3.7-9.5,0c-6.4-6.7-12.9-13.1-19.4-19.8c-0.9-0.9-3-2.6-2.6-3.2c6-12.5-6.2-12.9-11.6-16.6
		c-20.9-14.2-21.1-13.8-14.2-38.3c4.3-15.7,4.3-15.7,19.8-11.6c14.8,3.7,29.7,6.9,44.3,11.4c8.4,2.6,13.6,0.7,19.4-5.4
		c12.7-13.6,13.5-13.6,26.2,0c5.2,5.6,14.4,8.6,14,19.2c0,2.2,8.2,4.5,13.3-0.7c13.5-13.6,28.4-25.8,44.8-35.7
		c10.1-6.2,20.6-11.2,32.5-12.5c6.7-0.7,12.7,0.6,18.1,4.5c1.9,1.3,4.7,3.2,1.9,5.8c-2.1,1.9-3.4,6.7-7.3,4.3
		c-11.8-7.3-22.1-1.1-32,3.9c-18.9,9.5-35.1,22.8-49.7,37.9c-6.9,7.1-13.5,8.6-22.2,5.4C198.9,163.9,191.3,162.4,184.2,160.5z"/>
	<path class="st0" d="M367.1,96.2c-22.2,23.9-43.7,46.9-65.4,69.9c-66.3,71-132.9,142-199.2,213c-5.6,6.2-11.4,9.2-20.9,6.7
		c10.5-11.2,20.4-22.1,30.3-32.7c78.3-83.7,156.8-167.3,234.9-251.2C352.4,96.2,357.8,93.2,367.1,96.2z"/>
	<path class="st0" d="M191.1,380.4c7.3,0.4,12,3.6,16.1,7.7c5.4,5.4,10.3,5.6,16.8,1.1c17.8-12.1,18.3-12.1,35.3,0.4
		c5.2,3.9,9.2,3.4,14.2,0c18.1-12.1,18.3-12.3,36.3,0.2c5.4,3.7,9.3,3.2,14.2-0.4c16.8-12,18.5-12.3,34.6-0.6
		c6.9,5,11.6,4.1,17.8-0.9c12.1-9.9,35.7-5.2,43.5,8c1.9,3-0.9,4.5-1.9,6.5c-1.5,3.2-3.6,2.6-6,1.1c-4.5-3-9-5.8-13.3-9
		c-5.4-4.1-9.7-3.7-15.1,0.6c-14.2,11.4-18.1,11.6-32.7,0.7c-6.9-5-12-5.4-18.7,0c-13.1,10.5-17.9,10.7-31,0.4
		c-7.1-5.6-12.3-5.6-19.4,0c-13.6,10.5-17.8,10.3-31.8-0.7c-6.2-4.9-10.8-4.5-17-0.2c-16.6,11.6-18.5,11.6-34.4-0.7
		c-4.7-3.7-8.6-3.9-13.5-0.6c-5,3.4-10.3,6.5-15.1,9.9c-3,2.1-4.5,0.6-5.8-1.9c-0.9-2.1-4.1-4.5-0.9-6.4
		C172.8,390.2,180.8,381.9,191.1,380.4z"/>
</g>
</svg>
