<?xml version="1.0" encoding="utf-8"?>
<!-- Generator: Adobe Illustrator 24.2.1, SVG Export Plug-In . SVG Version: 6.00 Build 0)  -->
<svg version="1.1" id="Layer_1" xmlns="http://www.w3.org/2000/svg" xmlns:xlink="http://www.w3.org/1999/xlink" x="0px" y="0px"
	 viewBox="0 0 414.9 414.9" style="enable-background:new 0 0 414.9 414.9;" xml:space="preserve">
<style type="text/css">
	.st0{fill-rule:evenodd;clip-rule:evenodd;fill:#66CCFF;}
</style>
<path class="st0" d="M61.5,354.8c0.1,0.1,0.2,0.2,0.4,0.3c37.5,36.9,88.9,59.7,145.6,59.7l0,0c56.7,0,108.1-22.8,145.6-59.7
	c0.1-0.1,0.2-0.2,0.3-0.3c38-37.6,61.5-89.8,61.5-147.4v0c0-57.6-23.5-109.8-61.5-147.4l-0.6-0.6c-9.6-9.5-20.2-18-31.5-25.4
	c-18.5-12.2-38.8-21.3-60.2-27c-17.5-4.7-35.6-7-53.7-7C150.7,0,99.3,22.8,61.9,59.7c-0.1,0.1-0.2,0.2-0.3,0.3
	C23.5,97.6,0,149.8,0,207.4S23.5,317.2,61.5,354.8z M126.8,326.1c-14.2,5.8-28.7,13.4-43.4,23.2c26.9,23.6,60.6,39.6,97.8,44.8
	C157.9,371.1,140,348.3,126.8,326.1z M287.5,327c-13.2,22-30.9,44.4-53.9,67.1c37.1-5.2,70.8-21.2,97.8-44.8
	C322.5,343.5,307.3,334.7,287.5,327z M216.9,311.2v72.6c22.2-21.4,39.4-42.5,52.2-63.2C253.6,315.9,236,312.3,216.9,311.2z
	 M197.9,310.9c-16.8,0.5-34.5,3.2-52.8,8.7c12.9,21,30.3,42.5,52.8,64.2V310.9z M345.4,335.8c29.3-31.5,48-73,50.3-118.8H321
	c-0.1,4.5-0.4,9-0.8,13.5c-2.3,25.4-9.5,52.2-23.4,79.8C319.6,319.4,336.5,329.8,345.4,335.8z M117.6,309.2
	C104,282,96.9,255.6,94.7,230.5c-0.4-4.6-0.7-9.1-0.8-13.5H19.2c2.3,45.8,20.9,87.3,50.3,118.8C85.7,324.5,101.8,315.8,117.6,309.2z
	 M278.8,303.7c13.4-25.9,20.4-51,22.5-75c0.4-4,0.6-7.9,0.7-11.8h-85.1v75.1C239.7,293.3,260.6,297.9,278.8,303.7z M197.9,291.8
	v-74.8h-85.1c0.1,3.9,0.3,7.9,0.7,11.8c2.1,23.6,8.9,48.3,21.9,73.8C157.2,295.6,178.2,292.3,197.9,291.8z M395.6,197.9
	c-2.3-45.8-20.9-87.3-50.3-118.8c-9.2,6.2-27.1,17.1-51.2,26.5c13.6,27,24.1,58.2,26.4,92.3H395.6z M301.6,197.9
	c-2.3-31.9-12.3-61-25.1-86.1c-17.6,5.5-37.7,9.7-59.5,11v75.1H301.6z M197.9,197.9v-74.8c-19.1-0.5-39.3-3.5-60.1-10.1
	c-12.6,24.8-22.3,53.5-24.5,84.9H197.9z M94.3,197.9c2.3-33.7,12.5-64.5,25.8-91.2C103.5,100,86.6,91,69.5,79.1
	c-29.3,31.5-48,73-50.3,118.8H94.3z M197.9,31.2c-13.5,13.4-33.5,35.8-50.7,64.7c17.6,5.1,34.6,7.5,50.7,8.1V31.2z M216.9,31.2v72.5
	c18.2-1.1,35-4.4,50.1-8.8C249.9,66.5,230.3,44.5,216.9,31.2z M181.8,20.7c-37.4,5.1-71.3,21.2-98.3,44.9
	c15.5,10.4,30.8,18.3,45.8,24.2C146.7,59.6,167.1,35.9,181.8,20.7z M233.1,20.7c14.5,15,34.6,38.4,52,68.1
	c20.9-7.9,37-17.2,46.3-23.2C304.4,41.9,270.5,25.8,233.1,20.7z"/>
</svg>
