<?xml version="1.0" encoding="utf-8"?>
<!-- Generator: Adobe Illustrator 24.2.1, SVG Export Plug-In . SVG Version: 6.00 Build 0)  -->
<svg version="1.1" id="Layer_1" xmlns="http://www.w3.org/2000/svg" xmlns:xlink="http://www.w3.org/1999/xlink" x="0px" y="0px"
	 viewBox="0 0 250 250" style="enable-background:new 0 0 250 250;" xml:space="preserve">
<style type="text/css">
	.st0{fill:#F1D00A;}
</style>
<g>
	<path class="st0" d="M220,137l-57,0.6l-57.5,0.5c-9.6,0.1-19.2,0.2-28.8,0.2l-7.2,0c-1.2,0-2.4,0-3.7-0.1c-1.2,0-2.5-0.3-3.7-0.4
		c-0.3-0.1-0.6-0.1-0.9-0.1l-0.9-0.2l-1.8-0.5c-1.2-0.3-2.3-0.8-3.5-1.2c-1.1-0.6-2.3-1-3.3-1.7c-1.1-0.7-2.2-1.2-3.1-2
		c-4-2.9-7.4-6.7-9.8-11.1c-2.4-4.4-3.7-9.3-4-14.3c0-0.6-0.1-1.3-0.1-1.9l0-1.8l0-3.6l0-3.6c0.1-1.3,0.1-2.5,0.3-3.8
		c0.7-5,3.2-9.8,6.8-13.4c3.6-3.6,8.4-6,13.4-6.8c1.3-0.2,2.5-0.2,3.8-0.3l3.6,0l7.2,0l28.7,0.1c19.1,0.1,38.2,0,57.3,0.2l28.7,0.2
		l3.6,0c1.2,0.1,2.5,0.1,3.7,0.2c1.2,0.2,2.4,0.3,3.6,0.6l1.8,0.5l0.9,0.2l0.9,0.3c4.6,1.6,8.9,4.3,12.3,7.7
		c3.4,3.5,6.1,7.7,7.6,12.3c0.8,2.3,1.3,4.7,1.6,7.1c0.2,1.2,0.1,2.4,0.2,3.6c0,1.2,0,2.4,0,3.6L220,137z M220,137l-0.4-28.7
		c0-1.2,0-2.4-0.1-3.5c-0.1-1.2-0.1-2.4-0.3-3.5c-0.3-2.3-0.8-4.6-1.7-6.8c-1.6-4.4-4.2-8.4-7.6-11.7c-3.4-3.2-7.4-5.7-11.8-7.2
		l-0.8-0.3l-0.8-0.2l-1.7-0.4c-1.1-0.3-2.3-0.4-3.4-0.5c-1.2-0.1-2.3-0.1-3.5-0.2l-3.6,0l-28.7,0.2c-19.1,0.2-38.2,0.1-57.3,0.2
		l-28.7,0.1l-7.2,0l-3.6,0c-1.1,0.1-2.2,0.1-3.3,0.3c-4.4,0.6-8.6,2.9-11.7,6c-3.1,3.2-5.3,7.3-6,11.7c-0.2,1.1-0.2,2.2-0.3,3.3
		l0,3.6l0,3.6l0,1.8c0,0.6,0.1,1.1,0.1,1.7c0.2,4.6,1.4,9.1,3.6,13.1c2.2,4,5.3,7.5,9,10.2c0.9,0.7,1.9,1.2,2.9,1.9
		c1,0.6,2,1,3.1,1.5c1.1,0.4,2.1,0.8,3.2,1.2l1.7,0.4l0.8,0.2c0.3,0.1,0.6,0.1,0.8,0.1c1.1,0.2,2.3,0.4,3.4,0.4
		c1.1,0.1,2.3,0.1,3.5,0.1l7.1,0c9.5,0,19,0.1,28.5,0.2l57.2,0.5L220,137z"/>
</g>
</svg>
