<?xml version="1.0" encoding="utf-8"?>
<!-- Generator: Adobe Illustrator 24.2.1, SVG Export Plug-In . SVG Version: 6.00 Build 0)  -->
<svg version="1.1" id="Layer_1" xmlns="http://www.w3.org/2000/svg" xmlns:xlink="http://www.w3.org/1999/xlink" x="0px" y="0px"
	 viewBox="0 0 224.4 104.7" style="enable-background:new 0 0 224.4 104.7;" xml:space="preserve">
<style type="text/css">
	.st0{fill:#F1D00A;}
</style>
<g>
	<path class="st0" d="M176.6,21.6c0.7,0,1.2,0,1.7,0c6.6,0,13.1,0,19.7,0c4.5,0,8,1.6,10.6,5.4c4.7,6.7,9.5,13.3,14.3,20
		c1.3,1.9,1.8,3.9,1.4,6.1c-1.8,9.3-3.5,18.6-5.3,27.8c-0.9,4.5-5,8-9.6,8.4c0.1-0.6,0.1-1.1,0.2-1.6c0.9-8.4-2.9-15.5-10.4-18.9
		c-5.5-2.4-11.1-2.1-16.5,0.3c-8.3,3.7-13.5,10-14.9,19.1c-0.1,0.8-0.4,1.2-1.3,1.2c-21.9,0-43.8,0-65.7,0c-0.3,0-0.6,0-0.7,0
		c-0.2-2.9-0.1-5.8-0.6-8.5c-1.6-7.8-8.6-13.4-16.6-13.6C70.4,67,59.6,76.4,58.1,88.7c0,0.2-0.1,0.4-0.1,0.5c-2.9,0-5.9,0.4-8.7-0.1
		c-4.3-0.7-6.7-4.6-6.1-9c1-7.6,2.1-15.1,3.1-22.7c0.2-1.2,0.5-1.6,1.8-1.6c6.7,0.1,13.5,0.1,20.2,0c1.1,0,2.4-0.5,3.3-1.2
		c1.1-0.8,1.4-2.1,0.8-3.4c-0.5-1.2-1.6-1.6-2.9-1.6c-13.4,0-26.8,0-40.2,0c-8.4,0-16.9,0-25.3,0c-2.6,0-4-0.9-4-2.7
		c0-2,1.7-3.5,4.1-3.5c4.6,0,9.2,0,13.8,0c25.6,0,51.2,0,76.8,0c2.3,0,3.6-0.8,4.2-2.5c0.6-1.9-0.5-3.5-2.4-3.7c-0.4,0-0.8,0-1.3,0
		c-21.4,0-42.8,0-64.2,0c-0.4,0-0.7,0-1.1,0c-2.1,0-3.1-0.7-3.3-2.3c-0.2-1.7,0.9-3.3,2.6-3.8c0.7-0.2,1.4-0.2,2.1-0.2
		c17.6,0,35.2,0,52.8,0c2.2,0,3.5-0.8,4.1-2.5c0.6-1.8-0.4-3.5-2.3-3.7c-0.6-0.1-1.1,0-1.7,0c-21.4,0-42.8,0-64.2,0
		c-0.5,0-1,0.1-1.4,0c-0.9-0.4-2.1-0.8-2.4-1.5c-0.4-0.7-0.2-2,0.2-2.9c0.7-1.5,2.2-1.8,3.8-1.8c19.8,0,39.6,0,59.4,0
		c1.1,0,2.3-0.4,3.2-1.1c1.1-0.8,1.4-2.1,0.9-3.4s-1.7-1.7-3-1.7c-11.8,0-23.5,0-35.3,0c-1.4,0-2.4-0.4-2.9-1.7
		c-0.5-1.3-0.1-2.6,1-3.4c0.8-0.6,1.8-1,2.8-1c2.1-0.1,4.3,0,6.5-0.1c0.5,0,1.2-0.4,1.5-0.9C56.7,1.8,59.8,0,64,0
		c35.2,0,70.4,0,105.6,0c5.8,0,9.3,4,8.5,9.8c-0.1,1.1-0.3,2.1-0.4,3.2C177.3,15.9,177,18.7,176.6,21.6z M215.8,47
		c-0.2-0.3-0.3-0.5-0.4-0.7c-4.2-5.6-8.4-11.1-12.6-16.7c-1.5-1.9-3.5-2.8-5.8-2.8c-6,0-12,0-18,0c-1,0-1.4,0.3-1.5,1.3
		c-0.5,3.8-1,7.5-1.5,11.3c-0.3,2.5-0.7,5-1,7.6C188.6,47,202.1,47,215.8,47z"/>
	<path class="st0" d="M171.7,90.4c-0.1-11.5,11.8-21.2,22.9-18.5c7.6,1.8,12.1,9.1,10.5,17.1c-1.7,8.7-9.7,15.5-18.6,15.7
		C178.2,104.9,171.8,98.7,171.7,90.4z M187.3,97.4c5.2,0,9.9-4.2,10.6-9.4c0.7-5.3-3.3-9.5-8.5-9.2c-4.6,0.3-8.8,3.8-9.9,8.2
		C178,92.5,181.6,97.3,187.3,97.4z"/>
	<path class="st0" d="M62.1,90.2c0-10.8,10.4-20,21.1-18.7c9.1,1.1,14.6,9.8,11.9,18.9c-2.4,8.1-9.5,13.9-17.9,14.3
		C68.5,105.1,61.9,98.8,62.1,90.2z M88.2,86.8c0-4.1-2.6-7.2-6.5-7.9c-5.5-1-11.1,3.2-12.1,9.1c-0.8,4.7,2.4,8.9,7.1,9.3
		C82.6,98,88.2,92.8,88.2,86.8z"/>
</g>
</svg>
