<?xml version="1.0" encoding="utf-8"?>
<!-- Generator: Adobe Illustrator 24.2.1, SVG Export Plug-In . SVG Version: 6.00 Build 0)  -->
<svg version="1.1" id="Layer_1" xmlns="http://www.w3.org/2000/svg" xmlns:xlink="http://www.w3.org/1999/xlink" x="0px" y="0px"
	 viewBox="0 0 500 500" style="enable-background:new 0 0 500 500;" xml:space="preserve">
<style type="text/css">
	.st0{fill:#FFFFFF;}
</style>
<g>
	<path class="st0" d="M376.5,189.6c1.4,0,2.4,0,3.3,0c13,0,25.7,0,38.7,0c8.8,0,15.7,3.1,20.8,10.6c9.2,13.2,18.7,26.1,28.1,39.3
		c2.6,3.7,3.5,7.7,2.8,12c-3.5,18.3-6.9,36.5-10.4,54.6c-1.8,8.8-9.8,15.7-18.9,16.5c0.2-1.2,0.2-2.2,0.4-3.1
		c1.8-16.5-5.7-30.5-20.4-37.1c-10.8-4.7-21.8-4.1-32.4,0.6c-16.3,7.3-26.5,19.6-29.3,37.5c-0.2,1.6-0.8,2.4-2.6,2.4
		c-43,0-86.1,0-129.1,0c-0.6,0-1.2,0-1.4,0c-0.4-5.7-0.2-11.4-1.2-16.7c-3.1-15.3-16.9-26.3-32.6-26.7c-24.6-0.6-45.8,17.9-48.7,42
		c0,0.4-0.2,0.8-0.2,1c-5.7,0-11.6,0.8-17.1-0.2c-8.4-1.4-13.2-9-12-17.7c2-14.9,4.1-29.7,6.1-44.6c0.4-2.4,1-3.1,3.5-3.1
		c13.2,0.2,26.5,0.2,39.7,0c2.2,0,4.7-1,6.5-2.4c2.2-1.6,2.8-4.1,1.6-6.7c-1-2.4-3.1-3.1-5.7-3.1c-26.3,0-52.7,0-79,0
		c-16.5,0-33.2,0-49.7,0c-5.1,0-7.9-1.8-7.9-5.3c0-3.9,3.3-6.9,8.1-6.9c9,0,18.1,0,27.1,0c50.3,0,100.6,0,150.9,0
		c4.5,0,7.1-1.6,8.3-4.9c1.2-3.7-1-6.9-4.7-7.3c-0.8,0-1.6,0-2.6,0c-42,0-84.1,0-126.1,0c-0.8,0-1.4,0-2.2,0c-4.1,0-6.1-1.4-6.5-4.5
		c-0.4-3.3,1.8-6.5,5.1-7.5c1.4-0.4,2.8-0.4,4.1-0.4c34.6,0,69.2,0,103.7,0c4.3,0,6.9-1.6,8.1-4.9c1.2-3.5-0.8-6.9-4.5-7.3
		c-1.2-0.2-2.2,0-3.3,0c-42,0-84.1,0-126.1,0c-1,0-2,0.2-2.8,0c-1.8-0.8-4.1-1.6-4.7-2.9c-0.8-1.4-0.4-3.9,0.4-5.7
		c1.4-2.9,4.3-3.5,7.5-3.5c38.9,0,77.8,0,116.7,0c2.2,0,4.5-0.8,6.3-2.2c2.2-1.6,2.8-4.1,1.8-6.7c-1-2.6-3.3-3.3-5.9-3.3
		c-23.2,0-46.2,0-69.4,0c-2.8,0-4.7-0.8-5.7-3.3c-1-2.6-0.2-5.1,2-6.7c1.6-1.2,3.5-2,5.5-2c4.1-0.2,8.4,0,12.8-0.2
		c1,0,2.4-0.8,2.9-1.8c4.7-6.7,10.8-10.2,19.1-10.2c69.2,0,138.3,0,207.5,0c11.4,0,18.3,7.9,16.7,19.3c-0.2,2.2-0.6,4.1-0.8,6.3
		C377.9,178.4,377.3,183.9,376.5,189.6z M453.5,239.5c-0.4-0.6-0.6-1-0.8-1.4c-8.3-11-16.5-21.8-24.8-32.8
		c-2.9-3.7-6.9-5.5-11.4-5.5c-11.8,0-23.6,0-35.4,0c-2,0-2.8,0.6-2.9,2.6c-1,7.5-2,14.7-2.9,22.2c-0.6,4.9-1.4,9.8-2,14.9
		C400.1,239.5,426.6,239.5,453.5,239.5z"/>
	<path class="st0" d="M366.9,324.7c-0.2-22.6,23.2-41.7,45-36.4c14.9,3.5,23.8,17.9,20.6,33.6c-3.3,17.1-19.1,30.5-36.5,30.8
		C379.7,353.2,367.1,341.1,366.9,324.7z M397.5,338.5c10.2,0,19.5-8.3,20.8-18.5c1.4-10.4-6.5-18.7-16.7-18.1
		c-9,0.6-17.3,7.5-19.5,16.1C379.3,328.9,386.3,338.3,397.5,338.5z"/>
	<path class="st0" d="M151.5,324.4c0-21.2,20.4-39.3,41.5-36.7c17.9,2.2,28.7,19.3,23.4,37.1c-4.7,15.9-18.7,27.3-35.2,28.1
		C164.1,353.6,151.1,341.3,151.5,324.4z M202.8,317.7c0-8.1-5.1-14.1-12.8-15.5c-10.8-2-21.8,6.3-23.8,17.9
		c-1.6,9.2,4.7,17.5,14,18.3C191.8,339.7,202.8,329.5,202.8,317.7z"/>
</g>
</svg>
