<?xml version="1.0" encoding="utf-8"?>
<!-- Generator: Adobe Illustrator 24.2.1, SVG Export Plug-In . SVG Version: 6.00 Build 0)  -->
<svg version="1.1" id="Layer_1" xmlns="http://www.w3.org/2000/svg" xmlns:xlink="http://www.w3.org/1999/xlink" x="0px" y="0px"
	 viewBox="0 0 500 500" style="enable-background:new 0 0 500 500;" xml:space="preserve">
<style type="text/css">
	.st0{fill:#FFFFFF;}
</style>
<g>
	<path class="st0" d="M118.2,350.4c-2.2,0-3.4-1.1-4.5-2.2C65.7,281,72.4,190.5,131.7,131.2c64.9-64.9,172.2-64.9,237,0
		c2.2,2.2,2.2,5.6,0,7.8c-2.2,2.2-5.6,2.2-7.8,0c-61.5-61.5-159.9-61.5-221.4,0C84.7,193.8,78,278.8,122.7,341.4
		c2.2,2.2,1.1,5.6-1.1,7.8C120.5,349.2,119.4,350.4,118.2,350.4z M250.2,417.4c-42.5,0-86.1-16.8-118.5-49.2c-2.2-2.2-2.2-5.6,0-7.8
		c2.2-2.2,5.6-2.2,7.8,0c61.5,61.5,159.9,61.5,221.4,0c54.8-54.8,61.5-139.8,16.8-202.4c-2.2-2.2-1.1-5.6,1.1-7.8
		c2.2-1.1,5.6-1.1,7.8,2.2c48.1,67.1,40.3,157.7-17.9,216.9C336.3,400.7,292.7,417.4,250.2,417.4z"/>
	<path class="st0" d="M135,397.3c-3.4,0-5.6-2.2-5.6-5.6v-28c0-3.4,2.2-5.6,5.6-5.6h28c3.4,0,5.6,2.2,5.6,5.6s-2.2,5.6-5.6,5.6
		h-22.4v22.4C140.6,395.1,138.4,397.3,135,397.3z M365.4,140.1h-28c-3.4,0-5.6-2.2-5.6-5.6s2.2-5.6,5.6-5.6h22.4v-22.4
		c0-3.4,2.2-5.6,5.6-5.6c3.4,0,5.6,2.2,5.6,5.6v28C370.9,137.9,367.6,140.1,365.4,140.1z M250.2,372.7c-68.2,0-123-54.8-123-123
		s54.8-123,123-123s123,54.8,123,123S318.4,372.7,250.2,372.7z M250.2,137.9c-61.5,0-111.8,50.3-111.8,111.8s50.3,111.8,111.8,111.8
		S362,311.2,362,249.7S311.7,137.9,250.2,137.9z"/>
	<path class="st0" d="M250.2,372.7c-68.2,0-123-54.8-123-123s54.8-123,123-123s123,54.8,123,123S318.4,372.7,250.2,372.7z
		 M250.2,137.9c-61.5,0-111.8,50.3-111.8,111.8s50.3,111.8,111.8,111.8S362,311.2,362,249.7S311.7,137.9,250.2,137.9z"/>
	<path class="st0" d="M335.2,335.8H334c-54.8-15.7-112.9-15.7-167.7,0c-3.4,1.1-5.6-1.1-6.7-3.4c-1.1-3.4,1.1-5.6,3.4-6.7
		c57-16.8,117.4-16.8,174.4,0c3.4,1.1,4.5,4.5,3.4,6.7C340.8,333.6,338.5,335.8,335.2,335.8z M250.2,187.1
		c-20.1,0-40.3-2.2-60.4-5.6c-3.4-1.1-4.5-3.4-4.5-6.7c1.1-3.4,3.4-4.5,6.7-4.5c47,8.9,96.2,7.8,142-6.7c3.4-1.1,5.6,1.1,6.7,3.4
		c1.1,3.4-1.1,5.6-3.4,6.7C309.4,182.6,279.3,187.1,250.2,187.1z"/>
	<path class="st0" d="M255.8,372.7c-2.2,0-3.4-1.1-4.5-2.2c-2.2-2.2-1.1-5.6,1.1-7.8c38-25.7,60.4-67.1,60.4-112.9
		s-22.4-87.2-60.4-112.9c-2.2-2.2-3.4-5.6-1.1-7.8c1.1-2.2,5.6-2.2,7.8-1.1c40.3,28,64.9,72.7,64.9,121.9s-24.6,93.9-64.9,121.9
		C258,371.6,256.9,372.7,255.8,372.7z"/>
	<path class="st0" d="M244.6,372.7c-1.1,0-2.2,0-3.4-1.1c-40.3-28-64.9-72.7-64.9-121.9c0-34.7,12.3-69.3,35.8-96.2
		c2.2-2.2,5.6-2.2,7.8-1.1c2.2,2.2,2.2,5.6,1.1,7.8c-21.2,24.6-32.4,55.9-32.4,88.3c0,44.7,22.4,87.2,60.4,112.9
		c2.2,2.2,3.4,5.6,1.1,7.8C247.9,371.6,246.8,372.7,244.6,372.7z"/>
	<path class="st0" d="M250.2,366c-3.4,0-5.6-2.2-5.6-5.6V139c0-3.4,2.2-5.6,5.6-5.6c3.4,0,5.6,2.2,5.6,5.6v222.5
		C255.8,363.8,253.5,366,250.2,366z"/>
	<path class="st0" d="M360.9,255.3H156.3c-3.4,0-5.6-2.2-5.6-5.6c0-3.4,2.2-5.6,5.6-5.6H362c3.4,0,5.6,2.2,5.6,5.6
		C366.5,253.1,364.2,255.3,360.9,255.3z"/>
</g>
</svg>
