<?xml version="1.0" encoding="utf-8"?>
<!-- Generator: Adobe Illustrator 24.2.1, SVG Export Plug-In . SVG Version: 6.00 Build 0)  -->
<svg version="1.1" id="SvgjsSvg1090" xmlns:svgjs="http://svgjs.com/svgjs"
	 xmlns="http://www.w3.org/2000/svg" xmlns:xlink="http://www.w3.org/1999/xlink" x="0px" y="0px" viewBox="0 0 500 500"
	 style="enable-background:new 0 0 500 500;" xml:space="preserve">
<style type="text/css">
	.st0{fill:#FFFFFF;}
</style>
<g id="SvgjsG1092">
	<g>
		<path class="st0" d="M418.3,185.4H81.7c-10.3,0-18.7-6.5-18.7-14.6v-58.3c0-7.9,8.4-14.6,18.7-14.6h336.6
			c10.3,0,18.7,6.5,18.7,14.6v58.3C437,178.9,428.6,185.4,418.3,185.4z M81.7,159.1h336.6v-37.4H81.7V159.1z"/>
		<path class="st0" d="M399.6,402.2H100.4c-10.3,0-18.7-8.4-18.7-18.7V177.8c0-10.3,8.4-18.7,18.7-18.7h299.2
			c10.3,0,18.7,8.4,18.7,18.7v205.7C418.3,393.8,409.9,402.2,399.6,402.2z M100.4,382.7h297.8V178.2H100.4V382.7z"/>
		<path class="st0" d="M268.7,247.9h-37.4c-7.8,0-14-6.2-14-14c0-7.8,6.2-14,14-14h37.4c7.8,0,14,6.2,14,14
			C282.7,241.7,276.5,247.9,268.7,247.9z"/>
	</g>
</g>
</svg>
