<?xml version="1.0" encoding="utf-8"?>
<!-- Generator: Adobe Illustrator 24.2.1, SVG Export Plug-In . SVG Version: 6.00 Build 0)  -->
<svg version="1.1" xmlns="http://www.w3.org/2000/svg" xmlns:xlink="http://www.w3.org/1999/xlink" x="0px" y="0px"
	 viewBox="0 0 100 50" style="enable-background:new 0 0 100 50;" xml:space="preserve">
<style type="text/css">
	.st0{fill:#F0F0F0;}
	.st1{fill-rule:evenodd;clip-rule:evenodd;fill:#F0F0F0;}
</style>
<g id="Layer_1">
	<g>
		<g id="ar-logo" transform="translate(0.018 0.003)">
			<path id="Path_1" class="st0" d="M49.3,41.7l0.8,0.7c-6.8,7-19.6,9.6-30.1,3.2C9.5,39.2,5.5,26.5,10.3,15.4
				C15.2,4.1,27.7-1.8,39.9,1.7C51.8,5,57.5,15.6,57.6,23.9c0,0.6-0.5,1.1-1.1,1.1h0c-0.2-7.4-3.2-13.5-8.9-18.1
				c-3.9-3.2-8.8-4.9-13.9-5C23.3,1.6,14,8,10.7,17.8c-3.2,9.4,0.2,19.7,8.3,25.7C27.2,49.6,40,50.2,49.3,41.7z"/>
			<path id="Path_2" class="st0" d="M47,38.4l0.8,0.9c-6.3,6.6-17.6,8.3-26.2,2.7c-8.5-5.4-11.8-16.2-7.9-25.3
				C17.8,7.2,28.1,2.2,38.1,4.6c10.3,2.6,16.1,11.8,15.9,20h-1C52.7,13.5,43.7,6,35,5.3c-9.5-0.8-17.7,4.5-20.7,13.1
				c-2.9,8.1,0.2,17.3,7.5,22.2C29.7,46,40.2,45,47,38.4z"/>
			<path id="Path_3" class="st0" d="M51.9,5.9l0.6,0.5c2.5-1.2,4.8-2.5,7.2-3.3c13.4-4.5,27.8,4,30.4,17.9
				c2.3,11.9-5.8,23.9-17.9,26.5c-6.2,1.4-12.1,0.4-17.5-2.9c-0.7-0.4-1.1-0.4-1.5,0.3c6.6,5.3,20.4,7,30.5-1.9
				c9.9-8.8,10.9-23.9,2.1-33.8c-0.1-0.1-0.2-0.3-0.3-0.4C75.9-1.6,60.8-1.3,51.9,5.9z"/>
			<path id="Path_4" class="st0" d="M45.1,35.5l0.8,0.7c-4.8,5.5-14,7.7-21.6,3.4c-7.5-4.2-10.8-13.2-7.7-21.1
				C19.8,10.4,28.5,5.8,37.3,8c9.5,2.3,13.5,10.9,13.1,16.6h-1.1c-0.1-4.8-1.9-8.8-5.5-11.9c-2.5-2.3-5.6-3.6-9-3.9
				C27,8.1,20.2,12.2,17.7,19.2c-2.5,6.7-0.1,14.2,5.8,18.4C29.1,41.7,38.4,42.3,45.1,35.5z"/>
			<path id="Path_5" class="st0" d="M54.7,41.3l0.7-0.9c5.2,3.5,10.8,4.6,16.9,3c4.3-1.1,8-3.7,10.6-7.2c5.3-7,5.1-16.6-0.4-23.6
				C77.2,5.9,66,2.2,56,8.4c-0.2-0.3-0.4-0.5-0.6-0.8c5.6-4.4,17.4-5.9,25.9,1.8c8.2,7.3,9.1,19.8,2.1,28.3
				C75.9,46.6,63.1,47.5,54.7,41.3z"/>
			<path id="Path_6" class="st0" d="M47.1,24.6h-1.1c-0.2-4.3-1.9-7.8-5.5-10.4c-2.3-1.7-5-2.5-7.8-2.4c-6.1,0.2-11.1,4.2-12.5,10
				c-1.3,5.5,1.4,11.3,6.4,14c4.9,2.7,12.1,2.3,17-3.7l0.9,0.6c-2.9,4.6-10.3,7.7-17.2,4.7c-6.7-2.9-10-10.2-7.9-17
				c2.2-6.9,9.4-11,16.7-9.5C42.5,12.3,47.8,18.7,47.1,24.6z"/>
			<path id="Path_7" class="st0" d="M57.8,11.3c-0.2-0.3-0.4-0.6-0.5-0.9c5.1-3.8,15.3-4.7,22.2,2.4c6.4,6.5,6.5,16.9,0.3,23.5
				c-6.7,7.1-17,6.9-23.1,2.3l0.6-0.9c8.7,5.6,18.1,2.4,22.5-3.4c4.6-5.9,4.4-14.2-0.4-19.9C74.6,8.7,65.7,6.4,57.8,11.3z"/>
			<path id="Path_8" class="st0" d="M77.6,24.6c0,5.7-4.6,10.3-10.4,10.4s-10.5-4.5-10.5-10.2c0-5.7,4.6-10.3,10.3-10.4
				C72.8,14.4,77.5,18.9,77.6,24.6z M76.4,24.7c0-5-4.1-9.1-9.2-9.1c-5,0.1-9,4.2-9,9.2s4.2,9,9.2,9C72.4,33.7,76.3,29.7,76.4,24.7
				L76.4,24.7z"/>
			<path id="Path_9" class="st0" d="M67.1,15.6c5.1,0,9.2,4.1,9.2,9.1c0,5.1-4.2,9.1-9.2,9.1c0,0,0,0,0,0c-5.1,0-9.2-4.1-9.2-9.1
				C57.9,19.6,62,15.6,67.1,15.6C67.1,15.6,67.1,15.6,67.1,15.6z"/>
			<path id="Path_10" class="st0" d="M59.2,14.3l-0.4-1.1c5.6-4.2,14.1-3.2,18.9,2.1c4.9,5.3,4.8,13.5-0.2,18.8
				c-5,5.3-13.5,6.1-19.2,1.6l0.5-1c7.3,5.1,14.9,2.2,18.3-2c3.9-4.8,3.9-11.5,0-16.2C73.3,11.9,65.9,9.9,59.2,14.3z"/>
			<path id="Path_11" class="st0" d="M60.2,31c5.1,4.6,10.8,2.7,13.5-0.1c3.2-3.5,3.4-8.5,0.3-12.1c-2.5-3-8.2-5.1-13.5-0.7
				C60,16.9,60,16.9,61,16.2c3.8-2.6,8.9-2.4,12.5,0.4c3.6,2.8,4.9,7.6,3.2,11.8c-2.2,5.4-8.4,8-13.7,5.8c-0.8-0.3-1.6-0.8-2.3-1.3
				C59.7,32.2,59.7,32.1,60.2,31z"/>
			<path id="Path_12" class="st1" d="M32.8,14.3c-5.8,0-10.4,4.7-10.4,10.4S27,35.2,32.8,35.2c0.7,0,1.4-0.1,2.1-0.2
				c-0.3-0.1-0.3-1.1,0-1.6c0.3-0.6,1.2-2.2,0.3-2.7c-0.9-0.5-0.7-0.8-1.2-1.4s-0.3-0.7-0.4-0.9c-0.1-0.5,0.5-1.3,0.6-1.4
				c0-0.2,0-0.3,0-0.5c0-0.1-0.4-0.3-0.5-0.3c-0.1,0-0.2,0.2-0.3,0.2s-0.8-0.4-0.9-0.5c-0.1-0.1-0.2-0.3-0.4-0.5
				c-0.2-0.2-0.2,0-0.5-0.2s-1.2-0.5-1.9-0.7c-0.7-0.3-0.8-0.7-0.8-1c0-0.3-0.4-0.7-0.6-1C28,22.3,28,21.9,27.9,22s0.4,1.2,0.3,1.2
				c-0.1,0-0.2-0.3-0.4-0.6c-0.2-0.3,0.2-0.1-0.4-1.4c-0.7-1.3,0.2-1.9,0.3-2.6c0.1-0.7,0.6,0.3,0.3-0.2c-0.3-0.4,0-1.3-0.2-1.7
				c-0.2-0.3-1.3,0.4-1.3,0.4c0-0.3,1-0.9,1.7-1.4c0.7-0.5,1.2-0.1,1.7,0.1c0.6,0.2,0.6,0.1,0.4-0.1s0.1-0.3,0.5-0.2
				c0.4,0.1,0.6,0.6,1.2,0.5c0.7,0,0.1,0.1,0.2,0.3s-0.1,0.2-0.6,0.4c-0.4,0.3,0,0.3,0.8,0.9c0.8,0.6,0.6-0.4,0.5-0.8
				c-0.1-0.4,0.6-0.1,0.6-0.1c0.5,0.3,0.4,0,0.8,0.1c0.3,0.1,1.4,1,1.4,1c-1.2,0.7-0.5,0.7-0.3,0.9c0.2,0.2-0.4,0.4-0.4,0.4
				c-0.3-0.3-0.3,0-0.4,0.1c-0.2,0.1,0,0.3,0,0.3c-0.8,0.1-0.7,1-0.6,1.2c0,0.2-0.6,0.5-0.7,0.9c-0.1,0.3,0.4,1,0.1,1
				c-0.3,0-0.5-1-2-0.6c-0.4,0.1-1.4,0.6-0.9,1.6c0.5,1,1.4-0.3,1.7-0.1s-0.1,0.8,0,0.8c0.5,0,0.8,0.4,0.8,0.9
				c0,0.9,1.1,0.8,1.4,0.8c0.3,0,1-0.7,1.1-0.7c0.1,0,0.6-0.4,1.5,0.1c1,0.6,1.5,0.5,1.8,0.7s0.1,0.7,0.4,0.9s1.6,0,1.9,0.5
				c0.3,0.5-1.3,3.1-1.8,3.4s-0.7,1-1.3,1.4c-0.6,0.5-1.2,0.9-1.9,1.4c-0.6,0.3-0.7,1-1,1.2c5.6-1.3,9.2-6.8,7.9-12.5
				C41.9,17.8,37.6,14.4,32.8,14.3L32.8,14.3z M35.2,24.1c-0.1,0-0.4,0.3-1.2-0.1c-0.7-0.4-1.2-0.3-1.3-0.4c0,0-0.1-0.2,0.3-0.2
				c0.7-0.1,1.5,0.6,1.7,0.6s0.3-0.2,0.6-0.1C35.6,24,35.3,24.1,35.2,24.1L35.2,24.1z M31.8,15.4c-0.1,0,0-0.1,0.1-0.2
				c0,0,0-0.2,0.1-0.2c0.2-0.2,0.9-0.4,0.8,0S31.9,15.5,31.8,15.4z M33.6,16.7c-0.3,0-0.9-0.1-0.8-0.2c0.4-0.4-0.1-0.6-0.5-0.6
				c-0.4,0-0.5-0.2-0.3-0.3c0.4,0,0.7,0,1,0.1c0.1,0.1,0.8,0.4,0.8,0.6C33.9,16.5,33.9,16.7,33.6,16.7L33.6,16.7z M35.8,16.6
				c-0.2,0.1-1.2-0.6-1.4-0.8c-0.8-0.7-1.3-0.5-1.5-0.6c-0.2-0.1-0.1-0.3,0.2-0.5c0.3-0.2,1,0.1,1.5,0.1c0.5,0,1,0.4,1,0.8
				C35.6,16.1,36,16.5,35.8,16.6L35.8,16.6z"/>
			<path id="Path_13" class="st0" d="M58.5,33.8c-2.1,3.7-4.3,7.4-6.4,11.2c-0.8-1.3-1.5-2.6-2.3-4c1-1.6,1.8-3.3,2.9-4.8
				c1.1-1.7,2.8-2.4,4.8-2.5C57.7,33.7,58.1,33.7,58.5,33.8C58.4,33.7,58.4,33.7,58.5,33.8z"/>
			<path id="Path_14" class="st0" d="M45.6,33.7c0.9,0,1.9,0,2.8,0.1c1.6,0.3,2.7,1.9,2.4,3.5c0,0.2-0.1,0.3-0.1,0.5
				c-0.3,0.9-0.9,1.6-1.3,2.5C48.1,38.1,46.8,35.9,45.6,33.7L45.6,33.7z"/>
		</g>
	</g>
</g>
<g id="Layer_2">
</g>
</svg>
