<?xml version="1.0" encoding="utf-8"?>
<!-- Generator: Adobe Illustrator 24.2.1, SVG Export Plug-In . SVG Version: 6.00 Build 0)  -->
<svg version="1.1" id="Layer_1" xmlns="http://www.w3.org/2000/svg" xmlns:xlink="http://www.w3.org/1999/xlink" x="0px" y="0px"
	 viewBox="0 0 213.1 173.1" style="enable-background:new 0 0 213.1 173.1;" xml:space="preserve">
<style type="text/css">
	.st0{fill:#F1D00A;}
</style>
<g>
	<path class="st0" d="M213.1,119.8c-0.6,0.6-1.1,1.3-1.7,1.8c-12.5,10.3-24.9,20.5-37.4,30.8c-1.1,0.9-2.1,1.5-3.5,0.8
		c-1.3-0.6-1.6-1.9-1.6-3.2c0-3.8,0-7.6,0-11.4c0-0.5,0-1,0-1.7c-0.6,0-1.2,0-1.7,0c-30.8,0-61.6,0-92.4,0c-3.2,0-3.9-0.8-3.9-3.9
		c0-9.5,0-18.9,0-28.4c0-2.7,0.9-3.6,3.6-3.6c30.8,0,61.6,0,92.4,0c0.6,0,1.2,0,2,0c0-0.5,0-1,0-1.4c0-4,0-8,0-12
		c0-1.4,0.4-2.5,1.6-3.1c1.2-0.6,2.3-0.1,3.3,0.7c12.7,10.4,25.3,20.9,38,31.3c0.5,0.4,0.8,0.9,1.3,1.3
		C213.1,118.6,213.1,119.2,213.1,119.8z M76.4,131.5c0.7,0,1.3,0,1.9,0c30.2,0,60.5,0,90.7,0c0.8,0,1.6,0,2.4,0c1.9,0,3,1,3,3
		c0,1.9,0,3.7,0,5.6c0,1.6,0,3.2,0,5c10.7-8.8,21.2-17.4,31.7-26.1c-10.6-8.7-21-17.3-31.7-26.1c0,3.5,0,6.6,0,9.7
		c0,3.1-0.8,3.9-3.8,3.9c-30.8,0-61.6,0-92.4,0c-0.6,0-1.1,0-1.7,0C76.4,114.9,76.4,123.1,76.4,131.5z"/>
	<path class="st0" d="M0,53.5c0.5-0.6,0.9-1.2,1.5-1.7C14.1,41.4,26.7,31,39.4,20.6c1-0.8,2.1-1.2,3.3-0.6c1.2,0.6,1.6,1.6,1.5,2.9
		c0,0.5,0,1,0,1.5c0,3.9,0,7.9,0,12c0.6,0,1.2,0,1.8,0c30.8,0,61.6,0,92.4,0c3.1,0,3.9,0.8,3.9,3.8c0,9.5,0,19,0,28.5
		c0,2.6-0.9,3.5-3.5,3.5c-30.9,0-61.8,0-92.7,0c-0.6,0-1.1,0-1.8,0c0,3.1,0,6.1,0,9.1c0,1.4,0,2.8,0,4.3c0,1.3-0.3,2.5-1.6,3.1
		c-1.3,0.6-2.4,0.1-3.4-0.7c-6.8-5.6-13.6-11.2-20.4-16.8c-5.7-4.7-11.3-9.3-17-14c-0.7-0.6-1.3-1.3-1.9-2C0,54.6,0,54,0,53.5z
		 M38.6,80.3c0.1-0.7,0.1-1,0.1-1.4c0-2.7,0-5.3,0-8c0-3.4,0.7-4.1,4.1-4.1c30.7,0,61.3,0,92,0c0.6,0,1.2,0,1.8,0c0-8.4,0-16.6,0-25
		c-0.7,0-1.3,0-1.9,0c-30.8,0-61.7,0-92.5,0c-2.6,0-3.5-0.9-3.5-3.5c0-3,0-5.9,0-8.9c0-0.3-0.1-0.6-0.1-1.1C28,37,17.6,45.6,7,54.3
		C17.5,63,28,71.6,38.6,80.3z"/>
	<path class="st0" d="M110.8,0c2.2,0.2,4.5,0.5,6.7,0.7c20,2.7,37.1,11.2,51,25.7c17.9,18.7,25.6,41.2,24,67c-0.1,2-1.3,3.2-3,3
		c-1.7-0.1-2.7-1.5-2.5-3.4c0.1-1.2,0.2-2.4,0.2-3.8c-1.2,0-2.3,0-3.4,0c-1.9,0-3.1-1.2-3-2.8c0-1.6,1.2-2.6,3.1-2.6c1,0,2,0,2.9,0
		c0.1,0,0.2-0.1,0.2-0.1c1.8-10.7-8.1-38.1-16.8-46.8c-4.9,2-9.8,3.9-14.6,5.9c-0.7,0.3-1.5,0.5-2.3,0.7c-1.5,0.4-2.9-0.4-3.4-1.8
		c-0.4-1.4,0.3-2.8,1.7-3.3c1.7-0.7,3.5-1.2,5.3-1.9c3.1-1.3,6.2-2.6,9.5-4c-10.7-11.9-23.6-19.8-38.7-23.9c2.3,2.6,4.9,5.1,7,7.9
		c2.5,3.5,4.7,7.2,6.9,10.9c1,1.7,0.6,3.4-0.9,4.1c-1.5,0.8-3,0.2-3.9-1.6c-3.5-6.6-7.6-12.6-13.4-17.4c-3.6-3-7.7-5.3-12.3-6.3
		c-0.5-0.1-1-0.2-1.6-0.3c0,0.6,0,1,0,1.5c0,7.6,0,15.3-0.1,22.9c0,0.8-0.2,1.7-0.7,2.4c-0.6,1-1.7,1.2-2.8,0.9
		c-1.3-0.4-1.9-1.3-1.9-2.6c-0.1-2,0-3.9,0-5.9c0-6,0.1-12,0.1-18c0-0.4,0-0.8-0.1-1.3c-2.8,0.3-5.3,1.1-7.7,2.3
		c-6.6,3.2-11.5,8.3-15.6,14.4c-2,3.1-3.8,6.3-5.5,9.5c-1,1.8-2.4,2.4-3.9,1.7c-1.5-0.7-1.9-2.3-1-4.1c3.8-7.8,8.5-14.9,15-20.6
		c0.1-0.1,0.2-0.3,0.5-0.5c-4.8,1.2-9.3,2.9-13.6,5c-6,2.8-11.6,6.4-16.7,10.5c-1.3,1-2.6,2-3.8,3.1c-1.3,1.1-2.9,1-3.9-0.1
		s-1.1-2.8,0.3-3.9c4.2-3.4,8.3-6.9,12.9-9.8c12.3-7.9,25.8-12.1,40.3-13c0.4,0,0.8-0.1,1.2-0.2C105.1,0,107.9,0,110.8,0z"/>
	<path class="st0" d="M102,173.1c-2-0.2-3.9-0.5-5.9-0.7c-22.3-2.9-40.8-12.8-55.3-29.9c-14.3-17-21-36.7-20.4-59
		c0-1.4,0.1-2.8,0.2-4.3c0.2-1.7,1.4-2.8,2.9-2.7c1.6,0.1,2.6,1.4,2.5,3.1c0,0.7-0.1,1.3-0.1,2c0,0.6,0,1.2,0,2.1
		c1.4,0,2.7-0.1,4.1,0c1.6,0.1,2.6,1.3,2.5,2.8c-0.1,1.4-1.1,2.4-2.6,2.5c-1.3,0.1-2.6,0-4,0c0.7,17.7,6.5,33.5,17.1,47.2
		c4.7-1.9,9.2-3.8,13.7-5.6c1-0.4,2-0.7,3-1c1.5-0.4,3,0.3,3.4,1.7c0.5,1.4-0.3,2.8-1.7,3.4c-4.1,1.6-8.3,3.2-12.4,4.9
		c-0.7,0.3-1.3,0.7-2.2,1.1c10.7,11.7,23.5,19.6,38.6,23.8c0.1-0.1,0.2-0.2,0.3-0.3c-0.3-0.2-0.7-0.4-0.9-0.6
		c-5.7-5.2-9.9-11.4-13.4-18.2c-0.8-1.5-0.3-3.1,1.1-3.8c1.4-0.7,3-0.2,3.8,1.4c3,5.6,6.5,10.9,11.1,15.4c4.2,4.1,9,7.3,14.9,8.5
		c0.3,0.1,0.6,0.1,0.9,0.2c0.1,0,0.3,0,0.6,0c0-0.5,0-1,0-1.4c0-7.5,0-15.1,0-22.6c0-0.5,0-1.1,0.1-1.6c0.3-1.3,1.4-2.1,2.6-2.1
		s2.3,0.8,2.6,2.1c0.1,0.5,0.1,1.1,0.1,1.6c0,7.6,0,15.3-0.1,22.9c0,0.4,0,0.8,0.1,1.3c3.1-0.3,5.8-1.2,8.4-2.6
		c5.4-2.8,9.8-6.8,13.2-11.8c2.6-3.8,4.8-7.9,7.2-11.8c0.5-0.8,1.4-1.7,2.2-1.8c0.8-0.2,1.9,0.4,2.5,0.9c0.9,0.8,0.8,2,0.2,3.1
		c-2.6,4.3-5,8.8-7.9,12.9c-2.1,3-4.9,5.6-7.4,8.4c1.7-0.5,3.5-1,5.3-1.7c10.6-3.7,20-9.3,28.3-16.8c0.9-0.8,1.9-1.5,3-0.9
		c0.8,0.4,1.6,1.2,1.9,2c0.5,1.1-0.1,2.1-1,2.8c-4.3,3.3-8.5,6.9-13,9.9c-12.1,7.7-25.4,11.8-39.7,12.9c-0.4,0-0.8,0.2-1.3,0.3
		C108,173.1,105,173.1,102,173.1z"/>
	<path class="st0" d="M154.7,83.8c2.1,0,4.1,0,6.1,0c1.3,0,2.1,0.7,2.4,1.9c0.4,1.2,0,2.2-1,2.9c-0.5,0.4-1.3,0.5-2,0.6
		c-1.9,0.1-3.7,0-5.9,0c0,2,0,3.8,0,5.7c0,0.7-0.1,1.3-0.2,2c-0.2,1.5-1.4,2.5-2.8,2.4c-1.5-0.1-2.6-1.3-2.6-2.9
		c0-2,0.1-4.1,0.2-6.1c0-0.3,0-0.6-0.1-1c-13.2,0-26.4,0-39.8,0c0,1.2,0,2.4,0,3.6c0,1.2,0,2.3,0,3.5c-0.1,1.6-1.1,2.7-2.7,2.7
		c-1.6,0-2.7-1-2.7-2.7c0-2.3,0-4.7,0-7.1c-13.3,0-26.5,0-39.9,0c0.1,2.9,0.2,5.7,0.4,8.5c0.5,7.5,1.7,14.9,3.4,22.2
		c0.4,1.7-0.4,3.2-1.9,3.5c-1.6,0.4-3-0.5-3.4-2.3c-1.9-7.8-3-15.7-3.6-23.7c-0.2-2.7-0.3-5.5-0.4-8.3c-2.6,0-5,0-7.5,0
		c-1.4,0-2.4-0.9-2.6-2.2c-0.2-1.2,0.4-2.5,1.5-3c0.5-0.2,1-0.3,1.5-0.3c2,0,4.1-0.1,6.1,0c0.8,0,1.1-0.3,1.1-1.1
		c0-1.9,0.1-3.8,0.3-5.7c0.1-1.7,1.3-2.8,2.8-2.7c1.6,0.1,2.6,1.3,2.6,3.1c0,2,0,4.1,0,6.3c13,0,26.3,0,39.6,0c0-2.1,0-4.2,0-6.4
		c0-1.8,1.3-2.9,3-2.8c1.4,0.1,2.4,1.2,2.4,2.8c0,2.1,0,4.2,0,6.4c13.3,0,26.5,0,39.8,0c0-1.5,0.1-2.9,0-4.4
		c-0.4-8.8-1.6-17.6-3.6-26.2c-0.5-2.2,1.3-4,3.4-3.3c1.1,0.3,1.7,1.2,1.9,2.3c1.1,6.6,2.3,13.1,3.2,19.7
		C154.4,75.7,154.5,79.7,154.7,83.8z"/>
</g>
</svg>
