<?xml version="1.0" encoding="utf-8"?>
<!-- Generator: Adobe Illustrator 24.2.1, SVG Export Plug-In . SVG Version: 6.00 Build 0)  -->
<svg version="1.1" id="Layer_1" xmlns="http://www.w3.org/2000/svg" xmlns:xlink="http://www.w3.org/1999/xlink" x="0px" y="0px"
	 viewBox="0 0 500 500" style="enable-background:new 0 0 500 500;" xml:space="preserve">
<style type="text/css">
	.st0{fill:#FFFFFF;}
</style>
<g>
	<path class="st0" d="M456.5,314.4c-1.2,1.2-2.1,2.5-3.3,3.5c-24.2,20-48.3,39.7-72.5,59.7c-2.1,1.7-4.1,2.9-6.8,1.6
		c-2.5-1.2-3.1-3.7-3.1-6.2c0-7.4,0-14.7,0-22.1c0-1,0-1.9,0-3.3c-1.2,0-2.3,0-3.3,0c-59.7,0-119.4,0-179.1,0
		c-6.2,0-7.6-1.6-7.6-7.6c0-18.4,0-36.6,0-55c0-5.2,1.7-7,7-7c59.7,0,119.4,0,179.1,0c1.2,0,2.3,0,3.9,0c0-1,0-1.9,0-2.7
		c0-7.8,0-15.5,0-23.3c0-2.7,0.8-4.8,3.1-6s4.5-0.2,6.4,1.4c24.6,20.2,49,40.5,73.6,60.7c1,0.8,1.6,1.7,2.5,2.5
		C456.5,312.1,456.5,313.3,456.5,314.4z M191.6,337.1c1.4,0,2.5,0,3.7,0c58.5,0,117.3,0,175.8,0c1.6,0,3.1,0,4.7,0
		c3.7,0,5.8,1.9,5.8,5.8c0,3.7,0,7.2,0,10.9c0,3.1,0,6.2,0,9.7c20.7-17.1,41.1-33.7,61.4-50.6c-20.5-16.9-40.7-33.5-61.4-50.6
		c0,6.8,0,12.8,0,18.8c0,6-1.6,7.6-7.4,7.6c-59.7,0-119.4,0-179.1,0c-1.2,0-2.1,0-3.3,0C191.6,304.9,191.6,320.8,191.6,337.1z"/>
	<path class="st0" d="M43.5,185.9c1-1.2,1.7-2.3,2.9-3.3c24.4-20.2,48.8-40.3,73.5-60.5c1.9-1.6,4.1-2.3,6.4-1.2
		c2.3,1.2,3.1,3.1,2.9,5.6c0,1,0,1.9,0,2.9c0,7.6,0,15.3,0,23.3c1.2,0,2.3,0,3.5,0c59.7,0,119.4,0,179.1,0c6,0,7.6,1.6,7.6,7.4
		c0,18.4,0,36.8,0,55.2c0,5-1.7,6.8-6.8,6.8c-59.9,0-119.8,0-179.7,0c-1.2,0-2.1,0-3.5,0c0,6,0,11.8,0,17.6c0,2.7,0,5.4,0,8.3
		c0,2.5-0.6,4.8-3.1,6s-4.7,0.2-6.6-1.4c-13.2-10.9-26.4-21.7-39.5-32.6c-11-9.1-21.9-18-32.9-27.1c-1.4-1.2-2.5-2.5-3.7-3.9
		C43.5,188.1,43.5,186.9,43.5,185.9z M118.3,237.9c0.2-1.4,0.2-1.9,0.2-2.7c0-5.2,0-10.3,0-15.5c0-6.6,1.4-7.9,7.9-7.9
		c59.5,0,118.8,0,178.3,0c1.2,0,2.3,0,3.5,0c0-16.3,0-32.2,0-48.5c-1.4,0-2.5,0-3.7,0c-59.7,0-119.6,0-179.3,0c-5,0-6.8-1.7-6.8-6.8
		c0-5.8,0-11.4,0-17.2c0-0.6-0.2-1.2-0.2-2.1c-20.5,16.9-40.7,33.5-61.2,50.4C77.4,204.4,97.8,221,118.3,237.9z"/>
	<path class="st0" d="M258.2,82.3c4.3,0.4,8.7,1,13,1.4c38.8,5.2,71.9,21.7,98.8,49.8c34.7,36.2,49.6,79.8,46.5,129.8
		c-0.2,3.9-2.5,6.2-5.8,5.8c-3.3-0.2-5.2-2.9-4.8-6.6c0.2-2.3,0.4-4.7,0.4-7.4c-2.3,0-4.5,0-6.6,0c-3.7,0-6-2.3-5.8-5.4
		c0-3.1,2.3-5,6-5c1.9,0,3.9,0,5.6,0c0.2,0,0.4-0.2,0.4-0.2c3.5-20.7-15.7-73.8-32.6-90.7c-9.5,3.9-19,7.6-28.3,11.4
		c-1.4,0.6-2.9,1-4.5,1.4c-2.9,0.8-5.6-0.8-6.6-3.5c-0.8-2.7,0.6-5.4,3.3-6.4c3.3-1.4,6.8-2.3,10.3-3.7c6-2.5,12-5,18.4-7.8
		c-20.7-23.1-45.7-38.4-75-46.3c4.5,5,9.5,9.9,13.6,15.3c4.8,6.8,9.1,14,13.4,21.1c1.9,3.3,1.2,6.6-1.7,7.9
		c-2.9,1.6-5.8,0.4-7.6-3.1c-6.8-12.8-14.7-24.4-26-33.7c-7-5.8-14.9-10.3-23.8-12.2c-1-0.2-1.9-0.4-3.1-0.6c0,1.2,0,1.9,0,2.9
		c0,14.7,0,29.7-0.2,44.4c0,1.6-0.4,3.3-1.4,4.7c-1.2,1.9-3.3,2.3-5.4,1.7c-2.5-0.8-3.7-2.5-3.7-5c-0.2-3.9,0-7.6,0-11.4
		c0-11.6,0.2-23.3,0.2-34.9c0-0.8,0-1.6-0.2-2.5c-5.4,0.6-10.3,2.1-14.9,4.5c-12.8,6.2-22.3,16.1-30.2,27.9
		c-3.9,6-7.4,12.2-10.7,18.4c-1.9,3.5-4.7,4.7-7.6,3.3c-2.9-1.4-3.7-4.5-1.9-7.9c7.4-15.1,16.5-28.9,29.1-39.9c0.2-0.2,0.4-0.6,1-1
		c-9.3,2.3-18,5.6-26.4,9.7c-11.6,5.4-22.5,12.4-32.4,20.3c-2.5,1.9-5,3.9-7.4,6c-2.5,2.1-5.6,1.9-7.6-0.2c-1.9-2.1-2.1-5.4,0.6-7.6
		c8.1-6.6,16.1-13.4,25-19c23.8-15.3,50-23.5,78.1-25.2c0.8,0,1.6-0.2,2.3-0.4C247.2,82.3,252.6,82.3,258.2,82.3z"/>
	<path class="st0" d="M241.2,417.7c-3.9-0.4-7.6-1-11.4-1.4c-43.2-5.6-79.1-24.8-107.2-57.9C94.9,325.5,81.9,287.3,83,244.1
		c0-2.7,0.2-5.4,0.4-8.3c0.4-3.3,2.7-5.4,5.6-5.2c3.1,0.2,5,2.7,4.8,6c0,1.4-0.2,2.5-0.2,3.9c0,1.2,0,2.3,0,4.1c2.7,0,5.2-0.2,7.9,0
		c3.1,0.2,5,2.5,4.8,5.4c-0.2,2.7-2.1,4.7-5,4.8c-2.5,0.2-5,0-7.8,0c1.4,34.3,12.6,64.9,33.1,91.5c9.1-3.7,17.8-7.4,26.6-10.9
		c1.9-0.8,3.9-1.4,5.8-1.9c2.9-0.8,5.8,0.6,6.6,3.3c1,2.7-0.6,5.4-3.3,6.6c-7.9,3.1-16.1,6.2-24,9.5c-1.4,0.6-2.5,1.4-4.3,2.1
		c20.7,22.7,45.5,38,74.8,46.1c0.2-0.2,0.4-0.4,0.6-0.6c-0.6-0.4-1.4-0.8-1.7-1.2c-11-10.1-19.2-22.1-26-35.3
		c-1.6-2.9-0.6-6,2.1-7.4c2.7-1.4,5.8-0.4,7.4,2.7c5.8,10.9,12.6,21.1,21.5,29.8c8.1,7.9,17.4,14.1,28.9,16.5
		c0.6,0.2,1.2,0.2,1.7,0.4c0.2,0,0.6,0,1.2,0c0-1,0-1.9,0-2.7c0-14.5,0-29.3,0-43.8c0-1,0-2.1,0.2-3.1c0.6-2.5,2.7-4.1,5-4.1
		c2.3,0,4.5,1.6,5,4.1c0.2,1,0.2,2.1,0.2,3.1c0,14.7,0,29.7-0.2,44.4c0,0.8,0,1.6,0.2,2.5c6-0.6,11.2-2.3,16.3-5
		c10.5-5.4,19-13.2,25.6-22.9c5-7.4,9.3-15.3,14-22.9c1-1.6,2.7-3.3,4.3-3.5c1.6-0.4,3.7,0.8,4.8,1.7c1.7,1.6,1.6,3.9,0.4,6
		c-5,8.3-9.7,17.1-15.3,25c-4.1,5.8-9.5,10.9-14.3,16.3c3.3-1,6.8-1.9,10.3-3.3c20.5-7.2,38.8-18,54.8-32.6c1.7-1.6,3.7-2.9,5.8-1.7
		c1.6,0.8,3.1,2.3,3.7,3.9c1,2.1-0.2,4.1-1.9,5.4c-8.3,6.4-16.5,13.4-25.2,19.2c-23.5,14.9-49.2,22.9-76.9,25
		c-0.8,0-1.6,0.4-2.5,0.6C252.8,417.7,247,417.7,241.2,417.7z"/>
	<path class="st0" d="M343.3,244.7c4.1,0,7.9,0,11.8,0c2.5,0,4.1,1.4,4.7,3.7c0.8,2.3,0,4.3-1.9,5.6c-1,0.8-2.5,1-3.9,1.2
		c-3.7,0.2-7.2,0-11.4,0c0,3.9,0,7.4,0,11c0,1.4-0.2,2.5-0.4,3.9c-0.4,2.9-2.7,4.8-5.4,4.7c-2.9-0.2-5-2.5-5-5.6
		c0-3.9,0.2-7.9,0.4-11.8c0-0.6,0-1.2-0.2-1.9c-25.6,0-51.2,0-77.1,0c0,2.3,0,4.7,0,7c0,2.3,0,4.5,0,6.8c-0.2,3.1-2.1,5.2-5.2,5.2
		c-3.1,0-5.2-1.9-5.2-5.2c0-4.5,0-9.1,0-13.8c-25.8,0-51.4,0-77.3,0c0.2,5.6,0.4,11,0.8,16.5c1,14.5,3.3,28.9,6.6,43
		c0.8,3.3-0.8,6.2-3.7,6.8c-3.1,0.8-5.8-1-6.6-4.5c-3.7-15.1-5.8-30.4-7-45.9c-0.4-5.2-0.6-10.7-0.8-16.1c-5,0-9.7,0-14.5,0
		c-2.7,0-4.7-1.7-5-4.3c-0.4-2.3,0.8-4.8,2.9-5.8c1-0.4,1.9-0.6,2.9-0.6c3.9,0,7.9-0.2,11.8,0c1.6,0,2.1-0.6,2.1-2.1
		c0-3.7,0.2-7.4,0.6-11c0.2-3.3,2.5-5.4,5.4-5.2c3.1,0.2,5,2.5,5,6c0,3.9,0,7.9,0,12.2c25.2,0,51,0,76.7,0c0-4.1,0-8.1,0-12.4
		c0-3.5,2.5-5.6,5.8-5.4c2.7,0.2,4.7,2.3,4.7,5.4c0,4.1,0,8.1,0,12.4c25.8,0,51.4,0,77.1,0c0-2.9,0.2-5.6,0-8.5
		c-0.8-17.1-3.1-34.1-7-50.8c-1-4.3,2.5-7.8,6.6-6.4c2.1,0.6,3.3,2.3,3.7,4.5c2.1,12.8,4.5,25.4,6.2,38.2
		C342.7,229,342.9,236.7,343.3,244.7z"/>
</g>
</svg>
