<?xml version="1.0" encoding="utf-8"?>
<!-- Generator: Adobe Illustrator 24.2.1, SVG Export Plug-In . SVG Version: 6.00 Build 0)  -->
<svg version="1.1" id="SvgjsSvg1060" xmlns:svgjs="http://svgjs.com/svgjs"
	 xmlns="http://www.w3.org/2000/svg" xmlns:xlink="http://www.w3.org/1999/xlink" x="0px" y="0px" viewBox="0 0 264 193.7"
	 style="enable-background:new 0 0 264 193.7;" xml:space="preserve">
<style type="text/css">
	.st0{fill-rule:evenodd;clip-rule:evenodd;fill:#091867;}
	.st1{fill:#091867;}
	.st2{fill:#F1D00A;}
	.st3{fill-rule:evenodd;clip-rule:evenodd;fill:#F1D00A;}
</style>
<g id="SvgjsG1062">
	<g transform="translate(143.736 -207.065)">
		<path class="st0" d="M-119,326.6c-6-0.1-6,8.9,0,8.8h58.7c6,0.1,6-8.9,0-8.8H-119z"/>
		<path class="st1" d="M71.9,317.8c-2.4,0-4.4,2-4.4,4.4v17.6c0,2.4,2,4.4,4.4,4.4h19.9c2.4,0,4.4-1.9,4.5-4.3
			c0-2.4-1.9-4.4-4.3-4.5c0,0-0.1,0-0.1,0H76.3v-8.8h22.3c2.4,0,4.4-1.9,4.5-4.3c0-2.4-1.9-4.4-4.3-4.5c0,0-0.1,0-0.1,0H71.9z"/>
		<path class="st0" d="M-20.5,268.7v8.8h8.8v-8.8H-20.5z M-2.9,268.7v8.8h8.8v-8.8H-2.9z M32.3,268.7v8.8h8.8v-8.8H32.3z
			 M49.9,268.7v8.8h8.8v-8.8H49.9z M14.7,233.5v8.8h8.8v-8.8H14.7z M32.3,233.5v8.8h8.8v-8.8H32.3z"/>
		<path class="st2" d="M-139.3,287c-2.4,0-4.4,2-4.4,4.4c0,0.6,0.1,1.2,0.4,1.8l39.6,87.1c1,2.2,3.6,3.3,5.8,2.3
			c2.2-1,3.3-3.6,2.3-5.8c0-0.1,0-0.1-0.1-0.2l-36.8-80.9H109l-36.8,80.9c-1,2.2-0.1,4.8,2.1,5.9c2.2,1,4.8,0.1,5.9-2.1
			c0-0.1,0-0.1,0.1-0.2l39.6-87.1c1-2.2,0-4.8-2.2-5.8c-0.6-0.3-1.2-0.4-1.8-0.4H-139.3z"/>
		<path class="st2" d="M-33.7,251.8c-2.4,0-4.4,2-4.4,4.4v35.2c0,2.4,2,4.4,4.4,4.4h52.8c2.4,0,4.4-2,4.4-4.4v-35.2
			c0-2.4-2-4.4-4.4-4.4H-33.7z M-29.3,260.6h44V287h-44V260.6z"/>
		<path class="st2" d="M19.1,251.8c-2.4,0-4.4,2-4.4,4.4v35.2c0,2.4,2,4.4,4.4,4.4h52.8c2.4,0,4.4-2,4.4-4.4v-35.2
			c0-2.4-2-4.4-4.4-4.4H19.1z M23.5,260.6h44V287h-44V260.6z"/>
		<path class="st2" d="M1.5,216.6c-2.4,0-4.4,2-4.4,4.4v35.2c0,2.4,2,4.4,4.4,4.4h52.8c2.4,0,4.4-2,4.4-4.4V221c0-2.4-2-4.4-4.4-4.4
			H1.5z M5.9,225.4h44v26.4h-44V225.4z M-130.5,259.9c-2.4,0-4.4,2-4.4,4.4v27.1c0,2.4,2,4.4,4.4,4.4h61.6c2.4,0,4.4-2,4.4-4.4
			v-27.1c0-2.4-2-4.4-4.4-4.4H-130.5z M-126.1,268.7h52.8V287h-52.8V268.7z"/>
		<path class="st2" d="M-112.9,233.5c-2.4,0-4.4,2-4.4,4.4v26.4c0,2.4,2,4.4,4.4,4.4h35.2c2.4,0,4.4-2,4.4-4.4v-26.4
			c0-2.4-2-4.4-4.4-4.4H-112.9z M-108.5,242.3h26.4v17.6h-26.4V242.3z M-31.2,366.2c-1,0-1.9,0.4-2.7,1c-11.4,9.4-27.8,9.4-39.2,0.1
			c-1.9-1.5-4.6-1.3-6.2,0.6c-1.5,1.9-1.3,4.6,0.6,6.2c0,0,0,0,0,0c14.6,12,35.8,11.9,50.4-0.1c1.9-1.5,2.2-4.3,0.7-6.2
			C-28.5,366.8-29.8,366.2-31.2,366.2L-31.2,366.2z"/>
		<path class="st2" d="M12.7,366.2c-1,0-1.9,0.4-2.7,1c-11.4,9.4-27.7,9.4-39.2,0.1c-1.9-1.5-4.6-1.3-6.2,0.6
			c-1.5,1.9-1.3,4.6,0.6,6.2c0,0,0,0,0,0c14.6,12,35.8,11.9,50.4-0.1c1.9-1.5,2.2-4.3,0.7-6.2C15.4,366.8,14.1,366.2,12.7,366.2
			L12.7,366.2z M100.7,366.2c-1,0-1.9,0.4-2.7,1c-11.4,9.4-27.7,9.4-39.2,0.1c-1.9-1.5-4.7-1.3-6.2,0.6c-1.5,1.9-1.3,4.7,0.6,6.2
			l0,0c14.6,12,35.8,11.9,50.4-0.1c1.9-1.5,2.2-4.3,0.7-6.2C103.4,366.8,102.1,366.2,100.7,366.2L100.7,366.2z"/>
		<path class="st2" d="M56.7,366.2c-1,0-1.9,0.4-2.7,1c-11.4,9.4-27.7,9.4-39.2,0.1c-1.9-1.5-4.7-1.3-6.2,0.6
			c-1.5,1.9-1.3,4.7,0.6,6.2l0,0c14.6,12,35.8,11.9,50.4-0.1c1.9-1.5,2.2-4.3,0.7-6.2C59.4,366.8,58.1,366.2,56.7,366.2L56.7,366.2z
			 M-76.1,366.2c-1,0-1.9,0.4-2.7,1c-11.4,9.4-27.8,9.4-39.2,0.1c-1.9-1.5-4.7-1.3-6.2,0.6c-1.5,1.9-1.3,4.7,0.6,6.2l0,0
			c14.6,12,35.8,11.9,50.4-0.1c1.9-1.5,2.2-4.3,0.7-6.2C-73.4,366.8-74.8,366.2-76.1,366.2L-76.1,366.2z"/>
		<path class="st3" d="M-86.6,207.1c-2.4,0-4.4,2-4.3,4.5v0v26.4c0,2.4,1.9,4.4,4.3,4.5c2.4,0,4.4-1.9,4.5-4.3c0,0,0-0.1,0-0.1
			v-26.4c0-2.4-1.9-4.4-4.3-4.5C-86.5,207.1-86.6,207.1-86.6,207.1z M-104.2,215.9c-2.4,0-4.4,2-4.3,4.5V238c0,2.4,1.9,4.4,4.3,4.5
			c2.4,0,4.4-1.9,4.5-4.3c0,0,0-0.1,0-0.1v-17.7c0-2.4-1.9-4.4-4.3-4.5C-104.1,215.9-104.2,215.9-104.2,215.9z"/>
		<path class="st2" d="M-31.2,383.8c-1,0-1.9,0.4-2.7,1c-11.4,9.4-27.8,9.4-39.2,0.1c-1.9-1.5-4.6-1.3-6.2,0.6
			c-1.5,1.9-1.3,4.6,0.6,6.2c0,0,0,0,0,0c14.6,12,35.8,11.9,50.4-0.1c1.9-1.5,2.2-4.3,0.7-6.2C-28.5,384.4-29.8,383.8-31.2,383.8
			L-31.2,383.8z"/>
		<path class="st2" d="M12.7,383.8c-1,0-1.9,0.4-2.7,1c-11.4,9.4-27.7,9.4-39.2,0.1c-1.9-1.5-4.6-1.3-6.2,0.6
			c-1.5,1.9-1.3,4.6,0.6,6.2c0,0,0,0,0,0c14.6,12,35.8,11.9,50.4-0.1c1.9-1.5,2.2-4.3,0.7-6.2C15.4,384.4,14.1,383.8,12.7,383.8
			L12.7,383.8z M100.7,383.8c-1,0-1.9,0.4-2.7,1c-11.4,9.4-27.7,9.4-39.2,0.1c-1.9-1.5-4.7-1.3-6.2,0.6c-1.5,1.9-1.3,4.7,0.6,6.2
			c14.6,12,35.8,11.9,50.4-0.1c1.9-1.5,2.2-4.3,0.7-6.2C103.4,384.4,102.1,383.8,100.7,383.8L100.7,383.8z"/>
		<path class="st2" d="M56.7,383.8c-1,0-1.9,0.4-2.7,1c-11.4,9.4-27.7,9.4-39.2,0.1c-1.9-1.5-4.7-1.3-6.2,0.6
			c-1.5,1.9-1.3,4.7,0.6,6.2c14.6,12,35.8,11.9,50.4-0.1c1.9-1.5,2.2-4.3,0.7-6.2C59.4,384.4,58.1,383.8,56.7,383.8L56.7,383.8z
			 M-76.1,383.8c-1,0-1.9,0.4-2.7,1c-11.4,9.4-27.8,9.4-39.2,0.1c-1.9-1.5-4.7-1.3-6.2,0.6c-1.5,1.9-1.3,4.7,0.6,6.2l0,0
			c14.6,12,35.8,11.9,50.4-0.1c1.9-1.5,2.2-4.3,0.7-6.2C-73.4,384.4-74.8,383.8-76.1,383.8L-76.1,383.8z"/>
	</g>
</g>
</svg>
