<?xml version="1.0" encoding="utf-8"?>
<!-- Generator: Adobe Illustrator 24.2.1, SVG Export Plug-In . SVG Version: 6.00 Build 0)  -->
<svg version="1.1" id="SvgjsSvg1060" xmlns:svgjs="http://svgjs.com/svgjs"
	 xmlns="http://www.w3.org/2000/svg" xmlns:xlink="http://www.w3.org/1999/xlink" x="0px" y="0px" viewBox="0 0 500 500"
	 style="enable-background:new 0 0 500 500;" xml:space="preserve">
<style type="text/css">
	.st0{fill-rule:evenodd;clip-rule:evenodd;fill:#FFFFFF;}
	.st1{fill:#FFFFFF;}
</style>
<g id="SvgjsG1062">
	<g transform="translate(143.736 -207.065)">
		<path class="st0" d="M-62.8,492.9c-9.5-0.2-9.5,14,0,13.9h92.5c9.5,0.2,9.5-14,0-13.9H-62.8z"/>
		<path class="st1" d="M238,479c-3.8,0-6.9,3.2-6.9,6.9v27.7c0,3.8,3.2,6.9,6.9,6.9h31.4c3.8,0,6.9-3,7.1-6.8c0-3.8-3-6.9-6.8-7.1
			h-0.2h-24.6v-13.9h35.1c3.8,0,6.9-3,7.1-6.8c0-3.8-3-6.9-6.8-7.1h-0.2L238,479L238,479z"/>
		<path class="st0" d="M92.4,401.6v13.9h13.9v-13.9H92.4z M120.1,401.6v13.9H134v-13.9H120.1z M175.6,401.6v13.9h13.9v-13.9H175.6z
			 M203.3,401.6v13.9h13.9v-13.9H203.3z M147.9,346.2V360h13.9v-13.9H147.9z M175.6,346.2V360h13.9v-13.9H175.6z"/>
		<path class="st1" d="M-94.8,430.5c-3.8,0-6.9,3.2-6.9,6.9c0,0.9,0.2,1.9,0.6,2.8l62.4,137.2c1.6,3.5,5.7,5.2,9.1,3.6
			c3.5-1.6,5.2-5.7,3.6-9.1c0-0.2,0-0.2-0.2-0.3l-58-127.5h380.5l-58,127.5c-1.6,3.5-0.2,7.6,3.3,9.3c3.5,1.6,7.6,0.2,9.3-3.3
			c0-0.2,0-0.2,0.2-0.3l62.4-137.2c1.6-3.5,0-7.6-3.5-9.1c-0.9-0.5-1.9-0.6-2.8-0.6H-94.8V430.5z"/>
		<path class="st1" d="M71.6,375c-3.8,0-6.9,3.2-6.9,6.9v55.5c0,3.8,3.2,6.9,6.9,6.9h83.2c3.8,0,6.9-3.2,6.9-6.9v-55.5
			c0-3.8-3.2-6.9-6.9-6.9L71.6,375L71.6,375z M78.5,388.9h69.3v41.6H78.5V388.9z"/>
		<path class="st1" d="M154.8,375c-3.8,0-6.9,3.2-6.9,6.9v55.5c0,3.8,3.2,6.9,6.9,6.9H238c3.8,0,6.9-3.2,6.9-6.9v-55.5
			c0-3.8-3.2-6.9-6.9-6.9L154.8,375L154.8,375z M161.7,388.9h69.3v41.6h-69.3V388.9z"/>
		<path class="st1" d="M127.1,319.5c-3.8,0-6.9,3.2-6.9,6.9v55.5c0,3.8,3.2,6.9,6.9,6.9h83.2c3.8,0,6.9-3.2,6.9-6.9v-55.5
			c0-3.8-3.2-6.9-6.9-6.9H127.1z M134,333.4h69.3V375H134C134,375,134,333.4,134,333.4z M-80.9,387.8c-3.8,0-6.9,3.2-6.9,6.9v42.7
			c0,3.8,3.2,6.9,6.9,6.9h97.1c3.8,0,6.9-3.2,6.9-6.9v-42.7c0-3.8-3.2-6.9-6.9-6.9H-80.9z M-74,401.6H9.2v28.8H-74
			C-74,430.5-74,401.6-74,401.6z"/>
		<path class="st1" d="M-53.2,346.2c-3.8,0-6.9,3.2-6.9,6.9v41.6c0,3.8,3.2,6.9,6.9,6.9H2.3c3.8,0,6.9-3.2,6.9-6.9v-41.6
			c0-3.8-3.2-6.9-6.9-6.9H-53.2z M-46.3,360h41.6v27.7h-41.6V360z M75.5,555.3c-1.6,0-3,0.6-4.3,1.6c-18,14.8-43.8,14.8-61.8,0.2
			c-3-2.4-7.2-2-9.8,0.9c-2.4,3-2,7.2,0.9,9.8l0,0c23,18.9,56.4,18.8,79.4-0.2c3-2.4,3.5-6.8,1.1-9.8
			C79.8,556.2,77.8,555.3,75.5,555.3L75.5,555.3z"/>
		<path class="st1" d="M144.7,555.3c-1.6,0-3,0.6-4.3,1.6c-18,14.8-43.6,14.8-61.8,0.2c-3-2.4-7.2-2-9.8,0.9c-2.4,3-2,7.2,0.9,9.8
			l0,0c23,18.9,56.4,18.8,79.4-0.2c3-2.4,3.5-6.8,1.1-9.8C149,556.2,146.9,555.3,144.7,555.3L144.7,555.3z M283.4,555.3
			c-1.6,0-3,0.6-4.3,1.6c-18,14.8-43.6,14.8-61.8,0.2c-3-2.4-7.4-2-9.8,0.9c-2.4,3-2,7.4,0.9,9.8l0,0c23,18.9,56.4,18.8,79.4-0.2
			c3-2.4,3.5-6.8,1.1-9.8C287.6,556.2,285.6,555.3,283.4,555.3L283.4,555.3z"/>
		<path class="st1" d="M214.1,555.3c-1.6,0-3,0.6-4.3,1.6c-18,14.8-43.6,14.8-61.8,0.2c-3-2.4-7.4-2-9.8,0.9c-2.4,3-2,7.4,0.9,9.8
			l0,0c23,18.9,56.4,18.8,79.4-0.2c3-2.4,3.5-6.8,1.1-9.8C218.3,556.2,216.3,555.3,214.1,555.3L214.1,555.3z M4.8,555.3
			c-1.6,0-3,0.6-4.3,1.6c-18,14.8-43.8,14.8-61.8,0.2c-3-2.4-7.4-2-9.8,0.9c-2.4,3-2,7.4,0.9,9.8l0,0c23,18.9,56.4,18.8,79.4-0.2
			c3-2.4,3.5-6.8,1.1-9.8C9.1,556.2,6.8,555.3,4.8,555.3L4.8,555.3z"/>
		<path class="st0" d="M-11.7,304.6c-3.8,0-6.9,3.2-6.8,7.1l0,0v41.6c0,3.8,3,6.9,6.8,7.1c3.8,0,6.9-3,7.1-6.8v-0.2v-41.6
			c0-3.8-3-6.9-6.8-7.1C-11.6,304.6-11.7,304.6-11.7,304.6z M-39.5,318.4c-3.8,0-6.9,3.2-6.8,7.1v27.7c0,3.8,3,6.9,6.8,7.1
			c3.8,0,6.9-3,7.1-6.8v-0.2v-27.9c0-3.8-3-6.9-6.8-7.1C-39.3,318.4-39.5,318.4-39.5,318.4z"/>
		<path class="st1" d="M75.5,583c-1.6,0-3,0.6-4.3,1.6c-18,14.8-43.8,14.8-61.8,0.2c-3-2.4-7.2-2-9.8,0.9c-2.4,3-2,7.2,0.9,9.8l0,0
			c23,18.9,56.4,18.8,79.4-0.2c3-2.4,3.5-6.8,1.1-9.8C79.8,583.9,77.8,583,75.5,583L75.5,583z"/>
		<path class="st1" d="M144.7,583c-1.6,0-3,0.6-4.3,1.6c-18,14.8-43.6,14.8-61.8,0.2c-3-2.4-7.2-2-9.8,0.9c-2.4,3-2,7.2,0.9,9.8l0,0
			c23,18.9,56.4,18.8,79.4-0.2c3-2.4,3.5-6.8,1.1-9.8C149,583.9,146.9,583,144.7,583L144.7,583z M283.4,583c-1.6,0-3,0.6-4.3,1.6
			c-18,14.8-43.6,14.8-61.8,0.2c-3-2.4-7.4-2-9.8,0.9c-2.4,3-2,7.4,0.9,9.8c23,18.9,56.4,18.8,79.4-0.2c3-2.4,3.5-6.8,1.1-9.8
			C287.6,583.9,285.6,583,283.4,583L283.4,583z"/>
		<path class="st1" d="M214.1,583c-1.6,0-3,0.6-4.3,1.6c-18,14.8-43.6,14.8-61.8,0.2c-3-2.4-7.4-2-9.8,0.9c-2.4,3-2,7.4,0.9,9.8
			c23,18.9,56.4,18.8,79.4-0.2c3-2.4,3.5-6.8,1.1-9.8C218.3,583.9,216.3,583,214.1,583L214.1,583z M4.8,583c-1.6,0-3,0.6-4.3,1.6
			c-18,14.8-43.8,14.8-61.8,0.2c-3-2.4-7.4-2-9.8,0.9c-2.4,3-2,7.4,0.9,9.8l0,0c23,18.9,56.4,18.8,79.4-0.2c3-2.4,3.5-6.8,1.1-9.8
			C9.1,583.9,6.8,583,4.8,583L4.8,583z"/>
	</g>
</g>
</svg>
