<?xml version="1.0" encoding="utf-8"?>
<!-- Generator: Adobe Illustrator 24.2.1, SVG Export Plug-In . SVG Version: 6.00 Build 0)  -->
<svg version="1.1" id="SvgjsSvg1079" xmlns:svgjs="http://svgjs.com/svgjs"
	 xmlns="http://www.w3.org/2000/svg" xmlns:xlink="http://www.w3.org/1999/xlink" x="0px" y="0px" viewBox="0 0 168.4 176.1"
	 style="enable-background:new 0 0 168.4 176.1;" xml:space="preserve">
<style type="text/css">
	.st0{fill:#F1D00A;}
</style>
<g id="SvgjsG1081">
	<path class="st0" d="M68.1,131.7h8.4v8.4c0,4.6,3.8,8.4,8.4,8.4c4.7,0,8.4-3.8,8.4-8.4v-8.4h8.4c4.6,0,8.4-3.8,8.4-8.4
		c0-4.6-3.8-8.4-8.4-8.4h-8.4v-8.4c0-4.6-3.8-8.4-8.4-8.4s-8.4,3.8-8.4,8.4v8.4h-8.4c-4.6,0-8.4,3.8-8.4,8.4
		C59.7,127.9,63.5,131.7,68.1,131.7z M139.5,38.5h-15.8v-8.2c0-13.7-10.6-24.8-23.7-24.8H68.5c-13.1,0-23.7,11.1-23.7,24.8v8.2H29
		c-13.1,0-23.7,11.1-23.7,24.8v82.5c0,13.7,10.6,24.7,23.7,24.7h110.5c13.1,0,23.7-11.1,23.7-24.7V63.2
		C163.1,49.6,152.5,38.5,139.5,38.5z M59.7,28.2c0-6,3.8-11.1,8.4-11.1h33.7c4.6,0,8.4,4.9,8.4,11.1v10.9H59.7V28.2z M154.5,147.6
		c0,4.6-3.9,8.2-8.7,8.2H23.2c-4.8,0-8.8-3.7-8.8-8.2V89.6h140L154.5,147.6L154.5,147.6z M154.5,79.4h-140V63.9
		c0-8.5,3.9-15.5,8.8-15.5h122.5c4.8,0,8.7,6.9,8.7,15.5V79.4z"/>
</g>
</svg>
