<?xml version="1.0" encoding="utf-8"?>
<!-- Generator: Adobe Illustrator 24.2.1, SVG Export Plug-In . SVG Version: 6.00 Build 0)  -->
<svg version="1.1" id="SvgjsSvg1079" xmlns:svgjs="http://svgjs.com/svgjs"
	 xmlns="http://www.w3.org/2000/svg" xmlns:xlink="http://www.w3.org/1999/xlink" x="0px" y="0px" viewBox="0 0 500 500"
	 style="enable-background:new 0 0 500 500;" xml:space="preserve">
<style type="text/css">
	.st0{fill:#FFFFFF;}
</style>
<g id="SvgjsG1081">
	<path class="st0" d="M215,344.6h18.2v18.2c0,10,8.2,18.2,18.2,18.2c10.2,0,18.2-8.2,18.2-18.2v-18.2h18.2c10,0,18.2-8.2,18.2-18.2
		s-8.2-18.2-18.2-18.2h-18.2v-18.2c0-10-8.2-18.2-18.2-18.2s-18.2,8.2-18.2,18.2v18.2H215c-10,0-18.2,8.2-18.2,18.2
		S205.1,344.6,215,344.6z M369.6,142.8h-34.2V125c0-29.7-23-53.7-51.3-53.7h-68.2c-28.4,0-51.3,24-51.3,53.7v17.8h-34.2
		c-28.4,0-51.3,24-51.3,53.7v178.7c0,29.7,23,53.5,51.3,53.5h239.3c28.4,0,51.3-24,51.3-53.5V196.3
		C420.8,166.8,397.8,142.8,369.6,142.8z M196.8,120.5c0-13,8.2-24,18.2-24h73c10,0,18.2,10.6,18.2,24v23.6H196.8V120.5z
		 M402.1,379.1c0,10-8.4,17.8-18.8,17.8H117.8c-10.4,0-19.1-8-19.1-17.8V253.5h303.2L402.1,379.1L402.1,379.1z M402.1,231.4H99
		v-33.6c0-18.4,8.4-33.6,19.1-33.6h265.3c10.4,0,18.8,14.9,18.8,33.6V231.4z"/>
</g>
</svg>
