<?xml version="1.0" encoding="utf-8"?>
<!-- Generator: Adobe Illustrator 24.2.1, SVG Export Plug-In . SVG Version: 6.00 Build 0)  -->
<svg version="1.1" id="Layer_1" xmlns="http://www.w3.org/2000/svg" xmlns:xlink="http://www.w3.org/1999/xlink" x="0px" y="0px"
	 viewBox="0 0 500 500" style="enable-background:new 0 0 500 500;" xml:space="preserve">
<style type="text/css">
	.st0{fill:#FFFFFF;stroke:#FFFFFF;stroke-width:4;stroke-miterlimit:10;}
	.st1{fill:#FFFFFF;stroke:#FFFFFF;stroke-miterlimit:10;}
</style>
<g>
	<path class="st0" d="M329,344c19.1,0,37.7,0,56.5,0c10.5,0,10.5,0,10.4,10.7c0,8.4,0,16.7,0,25.1c0,6.5-1.1,7.5-7.4,7.5
		c-18.6,0-37.1,0-55.8,0.2c-1.2,0-2.6,0.2-3.6,0.3c-0.3,0.6-0.6,1.1-0.8,1.4c-1.2,10.8-1.2,10.8-12,10.8c-44.9,0-90,0-135,0
		c-7.4,0-10.7,0-9.8-9.6c0-0.8-0.2-1.4-0.5-2.9c-2,0-4.1,0-6,0c-18.2,0-36.4-0.2-54.7,0c-4.5,0-6.5-1.8-6.5-6.3
		c0-10.1,0.2-20.1,0-30.1c0-5,2-7.1,6.9-7.1c18,0.2,36.1,0,54.1,0c2,0,3.9,0,5.9,0c1.5-9.2,1.5-9.2,10.8-9.2c11.1,0,22.2,0,33.5-0.2
		c0.3,0,0.6-0.3,1.4-0.6c0-13.8,0-28,0-42.8c-3.9,0-7.8,0-11.6,0c-27.4,0-54.7,0-81.9,0c-11.7,0-18.8-7.1-18.8-18.8
		c0-51.1,0-102.2,0-153.3c0-12,7.1-19.1,19.2-19.1c84.5,0,168.8,0,253.2,0c12.3,0,19.2,7.1,19.2,19.5c0,50.8,0,101.4,0,152.2
		c0,12.5-6.9,19.4-19.2,19.4c-29.6,0-59.1,0-88.7,0c-1.2,0-2.6,0-4.4,0c0,14.6,0,28.7,0,43.4c11.7,0,23.4,0,35,0
		C327.6,334.8,327.6,334.8,329,344z M277,334.7c0-14.7,0.2-28.6,0-42.5c0-4.7,1.8-6.8,6.6-6.8c30.5,0.2,61,0,91.5,0
		c10.8,0,14.7-3.9,14.7-14.9c0-49.9,0-99.6,0-149.5c0-11.7-3.6-15.2-15.3-15.2c-69.6,0-139,0-208.6,0c-14.3,0-28.7,0-43,0
		c-7.8,0-12.5,4.4-12.5,11.9c-0.2,51.8,0,103.7,0,155.5c0,6.9,4.5,11.4,11.4,11.9c1.7,0.2,3.3,0,5,0c43.7,0,87.3,0,131,0
		c1.8,0,3.6,0.2,5.7,0.3c-0.2,2.1-0.2,3.6-0.3,5.7c-13.5,0-26.6,0-40.1,0c0,14.3,0,28,0,41.8c0,6.3-1.1,7.4-7.5,7.4
		c-8.4,0-16.7,0-25.1,0c-4.2,0-8.4,0-13.1,0c0,11.7,0,22.4,0,33.4c-2.1-0.2-3.8-0.3-5.9-0.5c0-8,0-15.5,0-23.3
		c-20.6,0-40.6,0-60.9,0c0,10.5,0,20.6,0,31c2.7,0.2,5.1,0.5,7.5,0.5c16.4,0,32.8,0,49.1-0.2c8.3-0.2,11.3-0.2,10.4,10.1
		c0,0.6,0.3,1.4,0.6,2c48.1,0,96,0,144.6,0c0-11.7,0-23.1,0-35c2.3,0.2,3.8,0.3,5.9,0.5c0,7.7,0,14.7,0,22.1c20.6,0,40.7,0,60.9,0
		c0-10.5,0-20.4,0-31.1c-2.3,0-4.2,0-6.3,0c-17,0-33.8,0-50.8,0c-9.2,0-9.2,0-10.5-9.5c-28.6,0-57.4,0-86.6,0c0.2-2.3,0.2-4.1,0.3-6
		C249.5,334.7,262.8,334.7,277,334.7z"/>
	<path class="st1" d="M132.7,127.3c58.3,0,116.5,0,175.1,0c0,45.8,0,91.7,0,137.7c-58.3,0-116.5,0-175.1,0
		C132.7,219.4,132.7,173.7,132.7,127.3z M138.3,133.2c0,4.1,0,7.5,0,11c0,36.7,0,73.2,0,109.9c0,3-0.5,6.2,4.2,6.2
		c4.1,0,8.1,0,12.2,0c13.7-0.3,27.2-0.8,40.9-0.8c15.8-0.2,31.6,0.2,47.2,0.2c8.9,0,17.7-0.2,26.6-0.2c10.8,0,21.6,0,32.9,0
		c0-42.4,0-84.3,0-126.2C247.4,133.2,193.3,133.2,138.3,133.2z"/>
	<path class="st1" d="M332.3,247.2c0-14.4,0-28.6,0-42.8c2.7-0.2,5.3-0.3,8.4-0.5c0-6.5,0-12.9,0-19.7c2.4,0,4.1,0,6.2,0
		c0,6.5,0,12.8,0,19.7c3.2,0.2,6.2,0.3,9.3,0.6c0,14.1,0,28.3,0,43c-1.7-0.2-3.2-0.3-4.7-0.5c-1.4,0-2.9,0-4.7,0
		c0,5.9,0,11.1,0,16.8c-2,0-3.8,0-5.6,0c0-3.5,0.3-6.8,0-9.9C340.8,246.2,340.7,246.2,332.3,247.2z M350.6,210.3
		c-4.5,0-8.4,0-12.3,0c0,10.5,0,20.6,0,31.7c3.2,0,6.3,0.3,9.2-0.2c1.2-0.2,3-2.3,3-3.5C350.8,229.2,350.6,219.9,350.6,210.3z"/>
	<path class="st1" d="M344.2,127.1c11.3,0,20,8.9,20,20.1c0,11.3-8.7,20.1-20,20.1c-11.4,0-20.6-9-20.4-20.4
		C323.9,135.9,332.9,127.1,344.2,127.1z M358.3,147c-0.2-7.7-6.9-14.1-14.4-14c-7.7,0.2-14.1,6.6-14.1,14.4s6.5,14.3,14.1,14.3
		C351.8,161.7,358.4,154.9,358.3,147z"/>
	<path class="st1" d="M297,199.1c-0.2,2.4-0.3,3.9-0.5,5.7c-3.3,0-6.6,0-9.8,0c-2.7-11.3-5.3-22.4-8-33.5c-0.5-0.2-0.8-0.2-1.2-0.3
		c-0.6,2.1-1.4,4.2-2,6.3c-2.1,7.4-4.4,14.6-6.2,21.9c-1.1,3.8-3,5.6-7.1,5.6c-4.7,0-10.8-1.1-13.8,1.5c-2.9,2.3-2.4,8.6-3.5,13.1
		c-0.9,4.4-1.8,8.7-3,13.1c-0.3,1.2-2,2.9-3,2.9c-1.4,0-3.5-1.2-4.1-2.4c-3.2-7.5-6.2-15.2-8.9-22.8c-1.2-3.6-3-4.8-6.8-4.7
		c-9.2,0.3-9.2,0-11.7-8.9c-1.4-4.8-2.9-9.6-4.2-14.4c0-0.2-0.3-0.2-1.1-0.5c-1.7,6-3.2,12-5.1,17.9c-0.6,1.7-2.6,2.7-3.9,4.1
		c-1.2-1.5-3.2-2.7-3.6-4.4c-1.4-4.5-2.1-9.2-4.2-13.5c-0.9,4.1-2,8.1-2.7,12.2c-0.8,4.1-3,5.6-6.9,5.4
		c-12.3-0.3-12.2,1.8-14.6-11.7c-0.9-5.3-2.3-10.4-4.4-15.6c-1.2,6.5-2.3,13.1-3.5,19.5c-1.4,7.5-2.1,8.3-10.2,7.5
		c-0.2-2.3-1.8-4.8,2.4-5.9c1.2-0.3,2-3.6,2.4-5.6c2.1-11.3,4.1-22.7,6-34.4c1.8-0.2,3.6-0.3,5.9-0.6c2.9,13.5,5.7,26.9,8.6,40.1
		c8,1.8,8.3,1.7,9.8-5.7c1.7-7.4,3.3-14.7,4.8-21.9c4.7-1.8,6.5,0,7.1,4.1c0.8,5,2,9.8,4.1,14.9c1.5-5.3,2.7-10.5,4.4-15.6
		c0.6-1.8,2.7-3.2,4.1-4.7c1.4,1.5,3.5,2.9,4.1,4.7c2.4,7.5,4.7,15.3,6.6,23c0.8,3.3,2.4,4.4,5.7,4.4c9.3,0,9.2,0.2,12.6,8.9
		c1.8,4.5,3.6,8.9,5.4,13.4c0,0.2,0.3,0.2,0.9,0.3c1.2-5.7,2.7-11.4,3.6-17.1c0.8-4.5,2.9-6.5,7.4-6.3c4.5,0.2,10.4,1.2,13.4-1.1
		c2.9-2.1,3-8,4.2-12.3c2.9-9.6,5.6-19.2,8.3-28.9c2,0,3.6,0,5.9,0c3,12.3,6,24.8,8.9,37.1C291,197,291.9,200.2,297,199.1z"/>
</g>
</svg>
