<?xml version="1.0" encoding="utf-8"?>
<!-- Generator: Adobe Illustrator 24.2.1, SVG Export Plug-In . SVG Version: 6.00 Build 0)  -->
<svg version="1.1" id="Layer_1" xmlns="http://www.w3.org/2000/svg" xmlns:xlink="http://www.w3.org/1999/xlink" x="0px" y="0px"
	 viewBox="0 0 198.3 203.5" style="enable-background:new 0 0 198.3 203.5;" xml:space="preserve">
<style type="text/css">
	.st0{fill:#F1D00A;stroke:#F1D00A;stroke-width:4;stroke-miterlimit:10;}
	.st1{fill:#F1D00A;}
</style>
<g>
	<path class="st0" d="M151.7,164.3c12.7,0,25.1,0,37.6,0c7,0,7,0,6.9,7.1c0,5.6,0,11.1,0,16.7c0,4.3-0.7,5-4.9,5
		c-12.4,0-24.7,0-37.1,0.1c-0.8,0-1.7,0.1-2.4,0.2c-0.2,0.4-0.4,0.7-0.5,0.9c-0.8,7.2-0.8,7.2-8,7.2c-29.9,0-59.9,0-89.8,0
		c-4.9,0-7.1,0-6.5-6.4c0-0.5-0.1-0.9-0.3-1.9c-1.3,0-2.7,0-4,0c-12.1,0-24.2-0.1-36.4,0c-3,0-4.3-1.2-4.3-4.2c0-6.7,0.1-13.4,0-20
		c0-3.3,1.3-4.7,4.6-4.7c12,0.1,24,0,36,0c1.3,0,2.6,0,3.9,0c1-6.1,1-6.1,7.2-6.1c7.4,0,14.8,0,22.3-0.1c0.2,0,0.4-0.2,0.9-0.4
		c0-9.2,0-18.6,0-28.5c-2.6,0-5.2,0-7.7,0c-18.2,0-36.4,0-54.5,0c-7.8,0-12.5-4.7-12.5-12.5c0-34,0-68,0-102C2.2,6.7,6.9,2,15,2
		c56.2,0,112.3,0,168.5,0c8.2,0,12.8,4.7,12.8,13c0,33.8,0,67.5,0,101.3c0,8.3-4.6,12.9-12.8,12.9c-19.7,0-39.3,0-59,0
		c-0.8,0-1.7,0-2.9,0c0,9.7,0,19.1,0,28.9c7.8,0,15.6,0,23.3,0C150.8,158.2,150.8,158.2,151.7,164.3z M117.1,158.1
		c0-9.8,0.1-19,0-28.3c0-3.1,1.2-4.5,4.4-4.5c20.3,0.1,40.6,0,60.9,0c7.2,0,9.8-2.6,9.8-9.9c0-33.2,0-66.3,0-99.5
		c0-7.8-2.4-10.1-10.2-10.1c-46.3,0-92.5,0-138.8,0c-9.5,0-19.1,0-28.6,0c-5.2,0-8.3,2.9-8.3,7.9c-0.1,34.5,0,69,0,103.5
		c0,4.6,3,7.6,7.6,7.9c1.1,0.1,2.2,0,3.3,0c29.1,0,58.1,0,87.2,0c1.2,0,2.4,0.1,3.8,0.2c-0.1,1.4-0.1,2.4-0.2,3.8
		c-9,0-17.7,0-26.7,0c0,9.5,0,18.6,0,27.8c0,4.2-0.7,4.9-5,4.9c-5.6,0-11.1,0-16.7,0c-2.8,0-5.6,0-8.7,0c0,7.8,0,14.9,0,22.2
		c-1.4-0.1-2.5-0.2-3.9-0.3c0-5.3,0-10.3,0-15.5c-13.7,0-27,0-40.5,0c0,7,0,13.7,0,20.6c1.8,0.1,3.4,0.3,5,0.3
		c10.9,0,21.8,0,32.7-0.1c5.5-0.1,7.5-0.1,6.9,6.7c0,0.4,0.2,0.9,0.4,1.3c32,0,63.9,0,96.2,0c0-7.8,0-15.4,0-23.3
		c1.5,0.1,2.5,0.2,3.9,0.3c0,5.1,0,9.8,0,14.7c13.7,0,27.1,0,40.5,0c0-7,0-13.6,0-20.7c-1.5,0-2.8,0-4.2,0c-11.3,0-22.5,0-33.8,0
		c-6.1,0-6.1,0-7-6.3c-19,0-38.2,0-57.6,0c0.1-1.5,0.1-2.7,0.2-4C98.8,158.1,107.7,158.1,117.1,158.1z"/>
	<path class="st1" d="M21.1,20.1c38.8,0,77.5,0,116.5,0c0,30.5,0,61,0,91.6c-38.8,0-77.5,0-116.5,0C21.1,81.4,21.1,51,21.1,20.1z
		 M24.8,24c0,2.7,0,5,0,7.3c0,24.4,0,48.7,0,73.1c0,2-0.3,4.1,2.8,4.1c2.7,0,5.4,0,8.1,0c9.1-0.2,18.1-0.5,27.2-0.5
		c10.5-0.1,21,0.1,31.4,0.1c5.9,0,11.8-0.1,17.7-0.1c7.2,0,14.4,0,21.9,0c0-28.2,0-56.1,0-84C97.4,24,61.4,24,24.8,24z"/>
	<path class="st1" d="M153.9,99.9c0-9.6,0-19,0-28.5c1.8-0.1,3.5-0.2,5.6-0.3c0-4.3,0-8.6,0-13.1c1.6,0,2.7,0,4.1,0
		c0,4.3,0,8.5,0,13.1c2.1,0.1,4.1,0.2,6.2,0.4c0,9.4,0,18.8,0,28.6c-1.1-0.1-2.1-0.2-3.1-0.3c-0.9,0-1.9,0-3.1,0c0,3.9,0,7.4,0,11.2
		c-1.3,0-2.5,0-3.7,0c0-2.3,0.2-4.5,0-6.6C159.6,99.2,159.5,99.2,153.9,99.9z M166.1,75.3c-3,0-5.6,0-8.2,0c0,7,0,13.7,0,21.1
		c2.1,0,4.2,0.2,6.1-0.1c0.8-0.1,2-1.5,2-2.3C166.2,87.9,166.1,81.7,166.1,75.3z"/>
	<path class="st1" d="M161.8,20c7.5,0,13.3,5.9,13.3,13.4s-5.8,13.4-13.3,13.4c-7.6,0-13.7-6-13.6-13.6
		C148.3,25.8,154.3,20,161.8,20z M171.2,33.2c-0.1-5.1-4.6-9.4-9.6-9.3c-5.1,0.1-9.4,4.4-9.4,9.6s4.3,9.5,9.4,9.5
		C166.9,43,171.3,38.5,171.2,33.2z"/>
	<path class="st1" d="M130.4,67.9c-0.1,1.6-0.2,2.6-0.3,3.8c-2.2,0-4.4,0-6.5,0c-1.8-7.5-3.5-14.9-5.3-22.3
		c-0.3-0.1-0.5-0.1-0.8-0.2c-0.4,1.4-0.9,2.8-1.3,4.2c-1.4,4.9-2.9,9.7-4.1,14.6c-0.7,2.5-2,3.7-4.7,3.7c-3.1,0-7.2-0.7-9.2,1
		c-1.9,1.5-1.6,5.7-2.3,8.7c-0.6,2.9-1.2,5.8-2,8.7c-0.2,0.8-1.3,1.9-2,1.9c-0.9,0-2.3-0.8-2.7-1.6c-2.1-5-4.1-10.1-5.9-15.2
		c-0.8-2.4-2-3.2-4.5-3.1c-6.1,0.2-6.1,0-7.8-5.9c-0.9-3.2-1.9-6.4-2.8-9.6c0-0.1-0.2-0.1-0.7-0.3c-1.1,4-2.1,8-3.4,11.9
		c-0.4,1.1-1.7,1.8-2.6,2.7c-0.8-1-2.1-1.8-2.4-2.9c-0.9-3-1.4-6.1-2.8-9c-0.6,2.7-1.3,5.4-1.8,8.1s-2,3.7-4.6,3.6
		c-8.2-0.2-8.1,1.2-9.7-7.8c-0.6-3.5-1.5-6.9-2.9-10.4c-0.8,4.3-1.5,8.7-2.3,13c-0.9,5-1.4,5.5-6.8,5c-0.1-1.5-1.2-3.2,1.6-3.9
		c0.8-0.2,1.3-2.4,1.6-3.7c1.4-7.5,2.7-15.1,4-22.9c1.2-0.1,2.4-0.2,3.9-0.4c1.9,9,3.8,17.9,5.7,26.7c5.3,1.2,5.5,1.1,6.5-3.8
		c1.1-4.9,2.2-9.8,3.2-14.6c3.1-1.2,4.3,0,4.7,2.7c0.5,3.3,1.3,6.5,2.7,9.9c1-3.5,1.8-7,2.9-10.4c0.4-1.2,1.8-2.1,2.7-3.1
		c0.9,1,2.3,1.9,2.7,3.1c1.6,5,3.1,10.2,4.4,15.3c0.5,2.2,1.6,2.9,3.8,2.9c6.2,0,6.1,0.1,8.4,5.9c1.2,3,2.4,5.9,3.6,8.9
		c0,0.1,0.2,0.1,0.6,0.2c0.8-3.8,1.8-7.6,2.4-11.4c0.5-3,1.9-4.3,4.9-4.2c3,0.1,6.9,0.8,8.9-0.7c1.9-1.4,2-5.3,2.8-8.2
		c1.9-6.4,3.7-12.8,5.5-19.2c1.3,0,2.4,0,3.9,0c2,8.2,4,16.5,5.9,24.7C126.4,66.5,127,68.6,130.4,67.9z"/>
</g>
</svg>
