<?xml version="1.0" encoding="utf-8"?>
<!-- Generator: Adobe Illustrator 24.2.1, SVG Export Plug-In . SVG Version: 6.00 Build 0)  -->
<svg version="1.1" id="Layer_1" xmlns="http://www.w3.org/2000/svg" xmlns:xlink="http://www.w3.org/1999/xlink" x="0px" y="0px"
	 viewBox="0 0 164.3 166.2" style="enable-background:new 0 0 164.3 166.2;" xml:space="preserve">
<style type="text/css">
	.st0{fill:#F1D00A;}
</style>
<g>
	<path class="st0" d="M40.5,154.2c0.7-3.8,1.3-7,2-10.2c0.4-1.6,0.1-2.6-1.3-3.6c-2.1-1.5-4.1-3.2-6.1-4.9c-1-0.9-1.9-1-3.1-0.4
		c-3,1.4-6,2.6-9,4c-1.4,0.6-2.4,0.3-3.3-0.9c-1.8-2.3-3.6-4.6-5.5-6.9c-0.8-0.9-0.7-1.8,0-2.7c2-2.7,4-5.5,6.1-8.2
		c0.8-1.1,0.9-1.8,0.3-3c-1.3-2.3-2.5-4.7-3.5-7.2c-0.6-1.5-1.5-2-3-2c-3.3,0-6.5-0.1-9.8-0.4c-0.8-0.1-1.8-0.9-2.1-1.6
		c-0.9-2.9-1.4-6-2.1-9c-0.3-1.3,0.1-2,1.2-2.6c2.9-1.5,5.8-3.1,8.7-4.5c1.3-0.6,1.9-1.4,1.8-2.9c-0.1-2.5-0.2-5.1,0-7.6
		c0.1-1.8-0.6-2.6-2.1-3.4c-2.8-1.3-5.6-2.9-8.3-4.4c-1.2-0.6-1.6-1.5-1.3-2.8c0.7-2.9,1.4-5.9,2-8.8c0.3-1.3,1-1.7,2.3-1.8
		c3.3-0.1,6.7-0.3,10-0.4c1.3,0,2-0.5,2.6-1.7c1.1-2.6,2.3-5.1,3.7-7.6c0.6-1.1,0.5-1.9-0.3-2.9c-2.1-2.6-4-5.4-6-8
		c-0.8-1-0.9-2,0-3c1.9-2.3,3.7-4.8,5.7-7c0.5-0.6,2-1,2.8-0.7c3.1,1.1,6.1,2.5,9,3.9c1.3,0.6,2.3,0.6,3.4-0.4
		c1.9-1.7,4-3.4,6.1-4.9c1.2-0.9,1.6-1.8,1.2-3.2c-0.7-3.1-1.2-6.3-1.8-9.4c-0.3-1.5,0.2-2.4,1.6-3.1c2.5-1.2,5.1-2.4,7.6-3.6
		c1.4-0.7,2.4-0.4,3.4,0.7c2.1,2.4,4.2,4.8,6.2,7.3c0.8,1,1.6,1.4,2.9,1.1c2.7-0.7,5.5-1.3,8.2-1.8c1.2-0.2,1.8-0.9,2.1-2.1
		c0.8-3.2,1.7-6.3,2.5-9.5C75.7,0.5,76.6,0,78.2,0c2.7,0.1,5.5,0.1,8.2,0c1.6-0.1,2.4,0.6,2.8,2.2c0.8,3,1.7,6.1,2.4,9.1
		c0.3,1.4,0.9,2.2,2.4,2.4c2.6,0.5,5.2,1.1,7.8,1.8c1.4,0.4,2.2,0,3.1-1.1c2-2.5,4.2-4.9,6.2-7.3c0.9-1.1,1.9-1.4,3.2-0.7
		c2.6,1.3,5.2,2.5,7.8,3.7c1.4,0.6,1.8,1.6,1.5,3.1c-0.6,3.1-1.1,6.3-1.9,9.4c-0.3,1.4-0.1,2.2,1.1,3.1c2.2,1.6,4.4,3.3,6.4,5.1
		c1,0.9,1.9,0.9,3.1,0.4c2.9-1.4,5.9-2.6,8.8-3.9c1.5-0.7,2.7-0.3,3.6,1c1.7,2.2,3.3,4.3,5.1,6.4c1,1.2,0.9,2.2,0,3.4
		c-2,2.6-4.1,5.3-5.9,8.1c-0.4,0.6-0.6,1.8-0.3,2.4c1.2,2.8,2.5,5.5,3.9,8.1c0.4,0.7,1.5,1.3,2.3,1.3c3.3,0.3,6.7,0.4,10,0.4
		c1.4,0,2.1,0.6,2.4,1.9c0.6,2.7,1.2,5.5,1.9,8.2c0.4,1.6,0.1,2.7-1.5,3.4c-2.6,1.3-5.2,2.8-7.8,4c-1.7,0.8-2.4,1.7-2.3,3.7
		c0.2,2.5,0.1,4.9,0,7.4c-0.1,1.5,0.5,2.3,1.8,3c2.9,1.4,5.7,3,8.5,4.4c1.3,0.7,1.7,1.6,1.3,2.9c-0.7,2.9-1.3,5.7-2,8.6
		c-0.3,1.3-1.1,1.9-2.4,1.9c-3.3,0.1-6.5,0.3-9.8,0.3c-1.4,0-2.2,0.5-2.7,1.8c-1.1,2.5-2.3,5-3.6,7.4c-0.7,1.2-0.5,2,0.3,3
		c2,2.6,3.9,5.3,5.9,7.9c0.9,1.2,0.8,2.2-0.1,3.4c-1.8,2.2-3.5,4.4-5.2,6.6c-0.9,1.2-2,1.5-3.3,0.8c-2.9-1.3-5.9-2.5-8.8-3.9
		c-1.4-0.7-2.3-0.4-3.4,0.5c-2,1.8-4.1,3.4-6.3,5c-1.1,0.8-1.4,1.5-1.1,2.9c0.7,3.2,1.3,6.4,1.9,9.6c0.3,1.5-0.2,2.4-1.6,3.1
		c-2.5,1.2-5.1,2.4-7.6,3.6c-1.3,0.7-2.4,0.4-3.4-0.7c-2.1-2.5-4.3-4.9-6.4-7.5c-0.8-1.1-1.6-1.3-2.9-0.9c-2.6,0.7-5.3,1.3-8,1.8
		c-1.3,0.2-1.9,0.8-2.2,2.1c-0.8,3.2-1.7,6.3-2.5,9.5c-0.4,1.5-1.2,2.1-2.7,2.1c-2.9-0.1-5.7-0.1-8.6,0c-1.3,0-2.1-0.5-2.5-1.8
		c-0.8-3.2-1.8-6.4-2.5-9.7c-0.3-1.3-0.9-1.9-2.2-2.1c-2.7-0.5-5.4-1.1-8-1.8c-1.3-0.3-2.1,0-3,1c-2.1,2.5-4.3,5-6.4,7.5
		c-0.9,1.1-1.9,1.3-3.2,0.7c-2.6-1.3-5.2-2.4-7.7-3.8C41.5,155.7,41,154.8,40.5,154.2z M22.6,83.2c0,32.8,26.6,59.5,59.4,59.5
		c33.1,0,59.8-26.5,59.8-59.6c0-33-26.6-59.6-59.5-59.6C49.2,23.5,22.6,50.1,22.6,83.2z"/>
	<path class="st0" d="M64.5,40.4c1.4,0,2.6,0,4.1,0c0.7,19.1,1.4,38.1,2.1,57.1c0.3,0.2,0.4,0.3,0.5,0.3c3.7,0.4,3.8,0.3,3.9-3.3
		c0.5-14.6,1-29.1,1.6-43.7c0-0.5,0.1-1,0.2-1.6c1.3,0,2.6,0,3.9,0c0.3,6.9,0.6,13.6,0.8,20.3c0.3,8.8,0.6,17.6,0.9,26.4
		c0,1.4,0.5,2.1,2,2c1.7-0.1,3.5,0,5.4,0c0,3.3,0.1,6.4,0,9.5c0,1.9,0.8,2.2,2.6,1.6c0-1.7,0-3.4,0-5.1c0-5.1,0-10.2,0-15.2
		c0-2.6,0-2.6,2.7-2.7c0.5,0,1-0.1,1.8-0.2c0-2.1,0-4.1,0-6.1c0-2.3,0.8-4.1,2.9-5c1.4-0.6,1-1.8,1-2.7c0-2.8,0-2.8,2.8-2.8
		c2.7,0,5.3,0.2,8,0.2c1.5,0,1.8,0.6,1.8,1.9c0,3.8,0,7.6,0,11.4c0,0.7,0.3,1.3,0.5,2.3c1.8-1.6-1-5.6,3.5-4.6
		c-0.1-2.8,1.1-4.6,3.3-6.1c1.4-1,2.1-0.8,3.5,0c2.9,1.8,3.3,4.4,3.2,7.4c-0.1,5.5,0,11,0,16.4c0,0.7,0,1.4,0,2.5c2.7,0,5.3,0,8.1,0
		c-1.8,5.5-4.2,10.3-7.4,14.7c-9,12.6-21.2,20.6-36.5,23c-24,3.8-45.9-6.8-58-27.4c-0.9-1.5-1.6-3.2-2.5-4.8
		c-0.5-0.9-0.5-1.6,0.4-2.2c1.1-0.8,2.2-1.8,3.5-2.9c1.2,2.7,2.3,5.2,3.6,8c3.2-2.7,6.3-5.3,9.6-8.1c0.9,2.1,1.9,3.9,2.5,5.8
		c0.7,2.3,2,2.9,4.4,2.2c0-3.6,0-7.2,0-11.2c2.5,0,4.8,0,7.3,0C63.1,78.7,63.8,59.7,64.5,40.4z M106.8,84.3c0,8.3,0,16.6,0,25
		c1.7,0,3.1-0.1,4.5,0s1.7-0.5,1.7-1.8c-0.1-3.5,0-6.9-0.1-10.4c0-1.3,0.2-2.2,1.6-2.2c0.4-3.1,0.1-3.4-2.9-3.1
		c-0.3,0-0.5,0.1-0.8,0.1c-1.3,0.2-2-0.3-1.9-1.8c0.1-1.9,0-3.8,0-5.8C108.2,84.3,107.6,84.3,106.8,84.3z M106.8,82.8
		c3.5,0.3,3.5,0.3,3.5,3.6c0,1.3,0,2.6,0,4.1c1.6,0,2.9,0,4.3,0c0-1.2,0-2.4,0-3.5c-3-0.4-3-0.4-3-3.4c0-2.9,0-5.9-0.1-8.8
		c0-1.1,0-2.2,0-3.3c-3.1,0-5.8,0-8.5,0c-0.5,1.7-0.4,2.9,1.5,3.7c1.7,0.8,2.3,2.5,2.3,4.3C106.8,80.6,106.8,81.6,106.8,82.8z
		 M96.8,88.1c-1.9-0.7-2.5,0-2.4,1.8c0.1,5.4,0,10.8,0,16.2c0,1,0,2,0,3c1,0,1.6,0,2.4,0C96.8,102.1,96.8,95.2,96.8,88.1z
		 M117.8,93.5c-0.4-0.7-0.7-1.2-0.9-1.7c-0.3,0.6-0.7,1.1-0.7,1.7c0,0.5,0.4,1,0.7,1.5C117.1,94.6,117.4,94.1,117.8,93.5z
		 M117.7,88.9c-0.4-0.7-0.7-1.4-1-2c-0.2,0.5-0.7,1-0.7,1.5c0,0.7,0.4,1.4,0.7,2.1C117.1,90,117.4,89.5,117.7,88.9z"/>
</g>
</svg>
