<?xml version="1.0" encoding="utf-8"?>
<!-- Generator: Adobe Illustrator 24.2.1, SVG Export Plug-In . SVG Version: 6.00 Build 0)  -->
<svg version="1.1" id="Layer_1" xmlns="http://www.w3.org/2000/svg" xmlns:xlink="http://www.w3.org/1999/xlink" x="0px" y="0px"
	 viewBox="0 0 500 500" style="enable-background:new 0 0 500 500;" xml:space="preserve">
<style type="text/css">
	.st0{fill:#FFFFFF;}
</style>
<g>
	<path class="st0" d="M160,403.7c1.5-8.2,2.8-15.1,4.3-22.1c0.9-3.5,0.2-5.6-2.8-7.8c-4.5-3.2-8.9-6.9-13.2-10.6
		c-2.2-1.9-4.1-2.2-6.7-0.9c-6.5,3-13,5.6-19.5,8.6c-3,1.3-5.2,0.6-7.1-1.9c-3.9-5-7.8-9.9-11.9-14.9c-1.7-1.9-1.5-3.9,0-5.8
		c4.3-5.8,8.6-11.9,13.2-17.7c1.7-2.4,1.9-3.9,0.6-6.5c-2.8-5-5.4-10.2-7.6-15.6c-1.3-3.2-3.2-4.3-6.5-4.3c-7.1,0-14.1-0.2-21.2-0.9
		c-1.7-0.2-3.9-1.9-4.5-3.5c-1.9-6.3-3-13-4.5-19.5c-0.6-2.8,0.2-4.3,2.6-5.6c6.3-3.2,12.5-6.7,18.8-9.7c2.8-1.3,4.1-3,3.9-6.3
		c-0.2-5.4-0.4-11,0-16.4c0.2-3.9-1.3-5.6-4.5-7.4c-6.1-2.8-12.1-6.3-17.9-9.5c-2.6-1.3-3.5-3.2-2.8-6.1c1.5-6.3,3-12.8,4.3-19
		c0.6-2.8,2.2-3.7,5-3.9c7.1-0.2,14.5-0.6,21.6-0.9c2.8,0,4.3-1.1,5.6-3.7c2.4-5.6,5-11,8-16.4c1.3-2.4,1.1-4.1-0.6-6.3
		c-4.5-5.6-8.6-11.7-13-17.3c-1.7-2.2-1.9-4.3,0-6.5c4.1-5,8-10.4,12.3-15.1c1.1-1.3,4.3-2.2,6.1-1.5c6.7,2.4,13.2,5.4,19.5,8.4
		c2.8,1.3,5,1.3,7.4-0.9c4.1-3.7,8.6-7.4,13.2-10.6c2.6-1.9,3.5-3.9,2.6-6.9c-1.5-6.7-2.6-13.6-3.9-20.3c-0.6-3.2,0.4-5.2,3.5-6.7
		c5.4-2.6,11-5.2,16.4-7.8c3-1.5,5.2-0.9,7.4,1.5c4.5,5.2,9.1,10.4,13.4,15.8c1.7,2.2,3.5,3,6.3,2.4c5.8-1.5,11.9-2.8,17.7-3.9
		c2.6-0.4,3.9-1.9,4.5-4.5c1.7-6.9,3.7-13.6,5.4-20.5c0.9-3.5,2.8-4.5,6.3-4.5c5.8,0.2,11.9,0.2,17.7,0c3.5-0.2,5.2,1.3,6.1,4.8
		c1.7,6.5,3.7,13.2,5.2,19.7c0.6,3,1.9,4.8,5.2,5.2c5.6,1.1,11.2,2.4,16.9,3.9c3,0.9,4.8,0,6.7-2.4c4.3-5.4,9.1-10.6,13.4-15.8
		c1.9-2.4,4.1-3,6.9-1.5c5.6,2.8,11.2,5.4,16.9,8c3,1.3,3.9,3.5,3.2,6.7c-1.3,6.7-2.4,13.6-4.1,20.3c-0.6,3-0.2,4.8,2.4,6.7
		c4.8,3.5,9.5,7.1,13.8,11c2.2,1.9,4.1,1.9,6.7,0.9c6.3-3,12.8-5.6,19-8.4c3.2-1.5,5.8-0.6,7.8,2.2c3.7,4.8,7.1,9.3,11,13.8
		c2.2,2.6,1.9,4.8,0,7.4c-4.3,5.6-8.9,11.5-12.8,17.5c-0.9,1.3-1.3,3.9-0.6,5.2c2.6,6.1,5.4,11.9,8.4,17.5c0.9,1.5,3.2,2.8,5,2.8
		c7.1,0.6,14.5,0.9,21.6,0.9c3,0,4.5,1.3,5.2,4.1c1.3,5.8,2.6,11.9,4.1,17.7c0.9,3.5,0.2,5.8-3.2,7.4c-5.6,2.8-11.2,6.1-16.9,8.6
		c-3.7,1.7-5.2,3.7-5,8c0.4,5.4,0.2,10.6,0,16c-0.2,3.2,1.1,5,3.9,6.5c6.3,3,12.3,6.5,18.4,9.5c2.8,1.5,3.7,3.5,2.8,6.3
		c-1.5,6.3-2.8,12.3-4.3,18.6c-0.6,2.8-2.4,4.1-5.2,4.1c-7.1,0.2-14.1,0.6-21.2,0.6c-3,0-4.8,1.1-5.8,3.9c-2.4,5.4-5,10.8-7.8,16
		c-1.5,2.6-1.1,4.3,0.6,6.5c4.3,5.6,8.4,11.5,12.8,17.1c1.9,2.6,1.7,4.8-0.2,7.4c-3.9,4.8-7.6,9.5-11.2,14.3
		c-1.9,2.6-4.3,3.2-7.1,1.7c-6.3-2.8-12.8-5.4-19-8.4c-3-1.5-5-0.9-7.4,1.1c-4.3,3.9-8.9,7.4-13.6,10.8c-2.4,1.7-3,3.2-2.4,6.3
		c1.5,6.9,2.8,13.8,4.1,20.8c0.6,3.2-0.4,5.2-3.5,6.7c-5.4,2.6-11,5.2-16.4,7.8c-2.8,1.5-5.2,0.9-7.4-1.5
		c-4.5-5.4-9.3-10.6-13.8-16.2c-1.7-2.4-3.5-2.8-6.3-1.9c-5.6,1.5-11.5,2.8-17.3,3.9c-2.8,0.4-4.1,1.7-4.8,4.5
		c-1.7,6.9-3.7,13.6-5.4,20.5c-0.9,3.2-2.6,4.5-5.8,4.5c-6.3-0.2-12.3-0.2-18.6,0c-2.8,0-4.5-1.1-5.4-3.9c-1.7-6.9-3.9-13.8-5.4-21
		c-0.6-2.8-1.9-4.1-4.8-4.5c-5.8-1.1-11.7-2.4-17.3-3.9c-2.8-0.6-4.5,0-6.5,2.2c-4.5,5.4-9.3,10.8-13.8,16.2
		c-1.9,2.4-4.1,2.8-6.9,1.5c-5.6-2.8-11.2-5.2-16.6-8.2C162.1,407,161.1,405,160,403.7z M121.3,250.2c0,70.9,57.5,128.6,128.4,128.6
		c71.6,0,129.3-57.3,129.3-128.9c0-71.4-57.5-128.9-128.6-128.9C178.8,121.1,121.3,178.7,121.3,250.2z"/>
	<path class="st0" d="M211.9,157.7c3,0,5.6,0,8.9,0c1.5,41.3,3,82.4,4.5,123.5c0.6,0.4,0.9,0.6,1.1,0.6c8,0.9,8.2,0.6,8.4-7.1
		c1.1-31.6,2.2-62.9,3.5-94.5c0-1.1,0.2-2.2,0.4-3.5c2.8,0,5.6,0,8.4,0c0.6,14.9,1.3,29.4,1.7,43.9c0.6,19,1.3,38.1,1.9,57.1
		c0,3,1.1,4.5,4.3,4.3c3.7-0.2,7.6,0,11.7,0c0,7.1,0.2,13.8,0,20.5c0,4.1,1.7,4.8,5.6,3.5c0-3.7,0-7.4,0-11c0-11,0-22.1,0-32.9
		c0-5.6,0-5.6,5.8-5.8c1.1,0,2.2-0.2,3.9-0.4c0-4.5,0-8.9,0-13.2c0-5,1.7-8.9,6.3-10.8c3-1.3,2.2-3.9,2.2-5.8c0-6.1,0-6.1,6.1-6.1
		c5.8,0,11.5,0.4,17.3,0.4c3.2,0,3.9,1.3,3.9,4.1c0,8.2,0,16.4,0,24.6c0,1.5,0.6,2.8,1.1,5c3.9-3.5-2.2-12.1,7.6-9.9
		c-0.2-6.1,2.4-9.9,7.1-13.2c3-2.2,4.5-1.7,7.6,0c6.3,3.9,7.1,9.5,6.9,16c-0.2,11.9,0,23.8,0,35.5c0,1.5,0,3,0,5.4
		c5.8,0,11.5,0,17.5,0c-3.9,11.9-9.1,22.3-16,31.8c-19.5,27.2-45.8,44.5-78.9,49.7c-51.9,8.2-99.2-14.7-125.4-59.2
		c-1.9-3.2-3.5-6.9-5.4-10.4c-1.1-1.9-1.1-3.5,0.9-4.8c2.4-1.7,4.8-3.9,7.6-6.3c2.6,5.8,5,11.2,7.8,17.3
		c6.9-5.8,13.6-11.5,20.8-17.5c1.9,4.5,4.1,8.4,5.4,12.5c1.5,5,4.3,6.3,9.5,4.8c0-7.8,0-15.6,0-24.2c5.4,0,10.4,0,15.8,0
		C208.9,240.5,210.4,199.4,211.9,157.7z M303.3,252.6c0,17.9,0,35.9,0,54.1c3.7,0,6.7-0.2,9.7,0s3.7-1.1,3.7-3.9
		c-0.2-7.6,0-14.9-0.2-22.5c0-2.8,0.4-4.8,3.5-4.8c0.9-6.7,0.2-7.4-6.3-6.7c-0.6,0-1.1,0.2-1.7,0.2c-2.8,0.4-4.3-0.6-4.1-3.9
		c0.2-4.1,0-8.2,0-12.5C306.4,252.6,305.1,252.6,303.3,252.6z M303.3,249.4c7.6,0.6,7.6,0.6,7.6,7.8c0,2.8,0,5.6,0,8.9
		c3.5,0,6.3,0,9.3,0c0-2.6,0-5.2,0-7.6c-6.5-0.9-6.5-0.9-6.5-7.4c0-6.3,0-12.8-0.2-19c0-2.4,0-4.8,0-7.1c-6.7,0-12.5,0-18.4,0
		c-1.1,3.7-0.9,6.3,3.2,8c3.7,1.7,5,5.4,5,9.3C303.3,244.6,303.3,246.8,303.3,249.4z M281.7,260.8c-4.1-1.5-5.4,0-5.2,3.9
		c0.2,11.7,0,23.4,0,35c0,2.2,0,4.3,0,6.5c2.2,0,3.5,0,5.2,0C281.7,291.1,281.7,276.2,281.7,260.8z M327.1,272.5
		c-0.9-1.5-1.5-2.6-1.9-3.7c-0.6,1.3-1.5,2.4-1.5,3.7c0,1.1,0.9,2.2,1.5,3.2C325.6,274.9,326.3,273.8,327.1,272.5z M326.9,262.6
		c-0.9-1.5-1.5-3-2.2-4.3c-0.4,1.1-1.5,2.2-1.5,3.2c0,1.5,0.9,3,1.5,4.5C325.6,264.9,326.3,263.8,326.9,262.6z"/>
</g>
</svg>
