<?xml version="1.0" encoding="utf-8"?>
<!-- Generator: Adobe Illustrator 24.2.1, SVG Export Plug-In . SVG Version: 6.00 Build 0)  -->
<svg version="1.1" id="Layer_1" xmlns="http://www.w3.org/2000/svg" xmlns:xlink="http://www.w3.org/1999/xlink" x="0px" y="0px"
	 viewBox="0 0 379.4 221" style="enable-background:new 0 0 379.4 221;" xml:space="preserve">
<style type="text/css">
	.st0{fill:#3E497A;}
	.st1{fill-rule:evenodd;clip-rule:evenodd;fill:#3E497A;}
</style>
<g id="Layer_1_1_">
	<g>
		<g id="ar-logo" transform="translate(0.018 0.003)">
			<path id="Path_1" class="st0" d="M186.5,186.6l3.4,3.3c-31,31.6-89.2,43.8-136.8,14.5C5.6,175.2-12.8,117.2,9.1,67
				C31.5,15.7,88.5-11.1,143.8,4.5c54,15.3,80.1,63.4,80.6,100.9c0.1,2.8-2.1,5.1-4.9,5.2h-0.1c-1.1-33.7-14.3-61.3-40.6-82.2
				c-17.9-14.4-40-22.5-63-22.9C68,4.1,26,33.3,10.9,77.7c-14.4,42.7,0.8,89.7,37.6,117.1C85.8,222.4,144.2,225.1,186.5,186.6z"/>
			<path id="Path_2" class="st0" d="M176.2,171.3l3.4,3.9c-28.8,29.8-79.8,37.7-119.3,12.4C21.9,163,6.4,114.1,24.3,72.7
				c18.7-42.9,65.6-66,111-54.9c46.6,11.6,73.4,53.7,72.1,90.9h-4.8C202,58.3,160.9,24.4,121.5,21c-43-3.6-80.5,20.3-94.3,59.7
				c-13,37,1.1,78.5,34,100.9C97.2,205.8,145.2,201.5,176.2,171.3z"/>
			<path id="Path_3" class="st0" d="M198.2,23.5l2.8,2.4c11.3-5.3,21.6-11.3,32.8-15.1c61.1-20.4,126.5,18.3,138.4,81.5
				c10.2,54.3-26.4,108.5-81.6,120.6c-28.3,6.2-54.9,1.8-79.7-13.1c-3.2-1.9-5.2-1.9-7,1.3c30.2,23.9,92.6,31.9,138.5-8.8
				c45.2-39.8,49.5-108.7,9.7-153.9c-0.5-0.6-1-1.2-1.6-1.7C307.5-10.3,238.8-9.2,198.2,23.5z"/>
			<path id="Path_4" class="st0" d="M167.5,158.2l3.6,3.2c-21.6,25.2-63.8,35-98.1,15.7c-34.1-19.1-49.1-60-35.2-95.8
				c14.4-37.2,54.2-58,94-48.2c43,10.5,61.5,49.4,59.8,75.6h-5c-0.5-21.7-8.8-39.8-25-54.1C150.3,44.3,136,38,120.8,36.7
				c-35.5-3.1-66.5,15.9-78.1,47.6c-11.2,30.7-0.5,64.4,26.2,83.8C94.5,186.5,136.8,189.2,167.5,158.2z"/>
			<path id="Path_5" class="st0" d="M211.1,184.7l3.2-4c23.6,15.9,49.3,20.7,76.8,13.5c19.4-5,36.5-16.6,48.4-32.8
				c24.1-32,23.1-75.6-1.8-107.1c-24.3-30.7-75.3-47.5-120.8-19c-0.9-1.2-1.8-2.4-2.8-3.6C239.4,11.8,293,5,331.6,39.9
				C368.8,73.2,373,130,341,168.4C307.3,208.8,249.1,212.7,211.1,184.7z"/>
			<path id="Path_6" class="st0" d="M176.7,108.9h-4.8c-0.8-19.6-8.9-35.6-24.8-47.2c-10.3-7.6-22.9-11.4-35.7-11
				c-27.6,0.7-50.5,19.1-56.7,45.4c-5.9,24.9,6.2,51.2,29,63.7c22.1,12.1,55.1,10.6,77.1-16.8l4,2.7c-13.2,20.9-46.9,35.1-78.3,21.5
				C56.2,154.1,40.9,121,50.6,89.9c9.9-31.4,42.7-50.2,75.8-43.3C155.7,52.8,179.5,82.1,176.7,108.9z"/>
			<path id="Path_7" class="st0" d="M225,48.1c-0.8-1.6-1.6-2.8-2.4-4.1c23.3-17.5,69.6-21.4,101.1,10.8c29,29.6,29.6,76.7,1.3,107
				c-30.3,32.5-77.4,31.4-104.9,10.7l2.6-4C262,194.1,305,179.2,325,153.2c20.9-26.8,20.1-64.6-1.8-90.5
				C301.7,36.6,261.2,26.1,225,48.1z"/>
			<path id="Path_8" class="st0" d="M315.1,108.7c0.2,25.9-21,47-47.2,47.2c-26.3,0.1-47.6-20.5-47.8-46.5
				c-0.1-25.9,20.8-47,46.7-47.1C293.6,62.1,314.9,82.7,315.1,108.7z M309.5,109.1c0.1-22.9-18.6-41.3-41.9-41.4
				c-22.8,0.3-41,19.1-40.7,41.9s19.1,41,41.9,40.7C291.4,150.1,309.5,131.7,309.5,109.1L309.5,109.1z"/>
			<path id="Path_9" class="st0" d="M267.6,67.8c23.3,0.1,42,18.5,41.9,41.4c-0.2,23-19,41.5-42,41.3h-0.1
				c-23.2,0-42-18.5-41.9-41.4s18.8-41.4,41.8-41.2C267.4,67.8,267.5,67.8,267.6,67.8z"/>
			<path id="Path_10" class="st0" d="M231.5,62l-1.9-4.8c25.5-19.1,64.3-14.7,85.9,9.4c22.1,24.3,21.8,61.5-0.7,85.4
				c-22.5,24.2-61.2,27.6-87.1,7.3l2.1-4.6c33.3,23.3,67.9,10,83.3-9.1c17.6-21.8,17.6-52.3,0-73.5C295.6,51.2,262,41.8,231.5,62z"
				/>
			<path id="Path_11" class="st0" d="M236.2,137.8c23.4,20.8,49.3,12.3,61.4-0.5c14.7-15.8,15.3-38.6,1.4-55.1
				c-11.4-13.6-37.5-23.1-61.6-3.2c-2.2-5.3-2.2-5.3,2.6-8.5c17.4-11.8,40.4-11,56.9,2c16.2,12.6,22.2,34.5,14.5,53.6
				c-10,24.5-38,36.3-62.5,26.3c-3.8-1.5-7.3-3.6-10.6-6C233.9,143.1,233.8,142.9,236.2,137.8z"/>
			<path id="Path_12" class="st1" d="M111.3,62.1c-26.2,0-47.5,21.2-47.5,47.5c0,26.2,21.2,47.5,47.5,47.5c3.2,0,6.3-0.3,9.4-1
				c-1.2-0.5-1.4-5-0.1-7.4c1.3-2.8,5.5-9.8,1.4-12.2s-3-3.4-5.5-6.2c-2.5-2.7-1.5-3.2-1.7-3.9c-0.5-2.3,2.4-6,2.6-6.4
				c0.1-0.7,0.1-1.5,0-2.2c0-0.5-1.8-1.5-2.3-1.6s-0.7,0.7-1.4,0.8c-0.6,0.1-3.4-1.7-4-2.2s-0.9-1.6-1.8-2.3s-0.9-0.2-2.2-0.7
				s-5.4-2.1-8.7-3.3c-3.3-1.3-3.5-3.2-3.5-4.5c-0.1-1.3-2-3.2-2.8-4.5c-0.9-1.4-1.1-3.2-1.4-2.8c-0.3,0.4,1.7,5.3,1.4,5.5
				c-0.4,0.2-1.1-1.4-2-2.6s0.9-0.6-2-6.4c-3-5.8,0.9-8.8,1.2-11.8c0.2-3,2.6,1.1,1.3-0.8c-1.3-2,0-6-0.9-7.5s-6,1.7-6,1.7
				c0.1-1.5,4.7-3.9,7.9-6.2s5.3-0.4,7.9,0.3c2.6,0.8,2.8,0.6,1.9-0.3s0.4-1.2,2.4-0.8c1.9,0.3,2.6,2.8,5.6,2.4
				c3.2-0.2,0.3,0.6,0.7,1.5s-0.4,0.7-2.6,2c-2,1.4,0.1,1.5,3.7,4.1s2.6-1.7,2.1-3.7s2.6-0.4,2.6-0.4c2.2,1.5,1.8,0.1,3.4,0.5
				s6.2,4.3,6.2,4.3c-5.6,3-2.1,3.3-1.2,4c0.9,0.8-1.9,2-1.9,2c-1.1-1.2-1.3,0.1-2,0.5c-0.8,0.4-0.1,1.5-0.1,1.5
				c-3.8,0.6-3,4.7-2.8,5.6c0,0.9-2.6,2.4-3.2,3.9c-0.6,1.4,1.7,4.3,0.4,4.5c-1.3,0.1-2.3-4.5-8.9-2.8c-2,0.5-6.4,2.8-4,7.3
				c2.4,4.7,6.2-1.3,7.5-0.6s-0.4,3.6-0.1,3.7c2.2,0.1,3.9,2,3.8,4.1c0.2,4,5.2,3.6,6.2,3.7c1.2,0,4.7-3,5.2-3
				c0.4-0.2,2.6-1.9,7,0.6s6.6,2.1,8.1,3.2s0.5,3.2,1.9,3.9c1.4,0.8,7.2-0.2,8.7,2.1s-6,14.2-8.3,15.5s-3.3,4.3-5.7,6.2
				c-2.7,2.2-5.6,4.3-8.6,6.2c-2.8,1.6-3.2,4.5-4.5,5.4c25.6-5.7,41.7-31.1,36-56.7C152.8,77.6,133.5,62.2,111.3,62.1L111.3,62.1z
				 M122.4,106.6c-0.6,0.2-1.9,1.5-5.3-0.5c-3.3-2-5.5-1.6-5.8-1.9c0,0-0.3-0.7,1.2-0.9c3-0.3,6.6,2.8,7.5,2.8s1.3-0.8,2.8-0.3
				C124.2,106.1,123.1,106.5,122.4,106.6L122.4,106.6z M106.8,66.9c-0.3-0.2,0.2-0.5,0.6-0.9c0.2-0.2,0.1-0.7,0.3-0.9
				c0.7-0.7,4.1-1.7,3.5,0.2C110.6,67.2,107.3,67.2,106.8,66.9z M115.1,72.9c-1.3-0.1-3.9-0.3-3.5-0.9c2-1.9-0.6-2.6-2.3-2.6
				c-1.7-0.1-2.3-1.1-1.5-1.3c1.6-0.1,3.2,0,4.7,0.5c0.5,0.4,3.5,1.7,3.7,2.6C116.5,72,116.3,72.8,115.1,72.9L115.1,72.9z
				 M125.1,72.6c-0.9,0.6-5.6-2.8-6.4-3.5c-3.8-3.3-6-2.1-6.8-2.8c-0.7-0.7-0.5-1.3,0.7-2.3c1.3-1,4.7,0.4,6.8,0.6
				c2.1,0.2,4.5,1.8,4.5,3.7C124,70,126.1,71.7,125.1,72.6L125.1,72.6z"/>
			<path id="Path_13" class="st0" d="M228.2,150.4c-9.7,16.9-19.4,33.8-29.3,50.9c-3.5-6.1-6.9-12-10.4-18c4.3-7.4,8.4-15,13.1-22
				c5-7.5,12.7-10.9,21.7-11.2c1.5,0,3,0,4.5,0C227.9,150.1,228,150.2,228.2,150.4z"/>
			<path id="Path_14" class="st0" d="M169.8,150c4.3,0.2,8.7-0.2,12.8,0.6c7.4,1.4,12.3,8.6,10.9,16.1c-0.1,0.8-0.4,1.5-0.6,2.2
				c-1.5,3.9-4,7.5-6.1,11.5c-5.9-10.2-11.5-20-17.2-29.9L169.8,150z"/>
		</g>
	</g>
</g>
<g id="Layer_2_1_">
</g>
</svg>
