<?xml version="1.0" encoding="utf-8"?>
<!-- Generator: Adobe Illustrator 24.2.1, SVG Export Plug-In . SVG Version: 6.00 Build 0)  -->
<svg version="1.1" id="SvgjsSvg1027" xmlns:svgjs="http://svgjs.com/svgjs"
	 xmlns="http://www.w3.org/2000/svg" xmlns:xlink="http://www.w3.org/1999/xlink" x="0px" y="0px" viewBox="0 0 288 288"
	 style="enable-background:new 0 0 288 288;" xml:space="preserve">
<style type="text/css">
	.st0{fill:#F0F0F0;}
</style>
<g id="SvgjsG1029">
	<path class="st0" d="M269.5,75.6c-0.1-5.4-0.6-10.8-1.3-16.2c-0.9-4.7-2.5-9.3-4.6-13.6c-2.2-4.7-5.3-8.9-8.9-12.5
		c-3.7-3.6-7.9-6.6-12.6-8.9c-4.3-2.1-8.9-3.6-13.6-4.5c-5.3-0.8-10.7-1.3-16.1-1.4H75.6c-5.4,0.1-10.8,0.6-16.2,1.3
		c-4.7,0.9-9.3,2.5-13.6,4.6c-4.7,2.2-8.9,5.3-12.5,8.9c-3.6,3.7-6.6,7.9-8.9,12.5c-2.1,4.3-3.6,8.9-4.5,13.6
		c-0.8,5.3-1.3,10.7-1.4,16.1c0,2.4,0,5.8,0,6.8v123.5c0,1.4,0,4.4,0,6.7c0.1,5.4,0.6,10.8,1.3,16.2c0.9,4.7,2.5,9.3,4.6,13.6
		c2.2,4.7,5.3,8.9,8.9,12.6c3.7,3.6,7.9,6.6,12.5,8.9c4.3,2.1,8.9,3.6,13.6,4.5c5.3,0.8,10.7,1.3,16.1,1.4h136.9
		c5.4-0.1,10.8-0.6,16.2-1.3c4.7-0.9,9.3-2.5,13.6-4.6c4.7-2.2,8.9-5.3,12.6-8.9c3.6-3.7,6.6-7.9,8.9-12.6c2.1-4.3,3.6-8.9,4.5-13.6
		c0.8-5.3,1.3-10.7,1.4-16.1c0-2.4,0-5.4,0-6.8V82.3C269.5,81.3,269.5,77.9,269.5,75.6z M146.9,231.9L146.9,231.9
		c-15.1-0.1-29.9-4-43-11.3l-47.7,12.6l12.5-46.7c-8.1-13.6-12.4-29.1-12.5-44.9c0.1-49.8,40.6-90,90.4-89.9
		c49.8,0.1,90,40.6,89.9,90.4C236.2,191.4,196.3,231.5,146.9,231.9z M146.9,67.1c-41.6,0.5-74.9,34.6-74.4,76.2
		c0.2,13.6,4,26.8,11.1,38.4l1.8,2.9L77.7,212l28.6-7.8l2.8,1.6c11.4,6.7,24.4,10.3,37.7,10.4l0,0c41.6,0,75.3-33.7,75.3-75.3v0
		c0-41.6-33.7-75.3-75.3-75.3L146.9,67.1z M190.8,174c-3.3,5.5-8.8,9.4-15.2,10.7c-4.7,0.9-9.5,0.6-14.1-0.9
		c-4.3-1.3-8.5-2.9-12.6-4.8c-15.5-7.8-28.7-19.5-38.4-33.9c-5.2-6.7-8.4-14.8-9.2-23.2c-0.2-7.1,2.7-14,7.9-18.8
		c1.5-1.7,3.7-2.7,6-2.8h3.5c1.4,0,3.3,0,5,3.9c1.8,3.9,6.4,15.6,7,16.7c0.6,1.2,0.6,2.7,0,3.9c-0.6,1.4-1.3,2.6-2.3,3.8
		c-1.1,1.4-2.4,3-3.4,4s-2.3,2.3-1,4.5c3.4,5.8,7.6,11,12.6,15.6c5.3,4.7,11.5,8.5,18.1,11.2c2.3,1.1,3.6,1,4.9,0s5.6-6.5,7.2-8.8
		c1.5-2.3,3-1.9,5-1.1c2,0.8,13.2,6.1,15.4,7.3s3.6,1.6,4.3,2.6c0.5,3.3,0.2,6.7-0.9,9.8V174z"/>
</g>
</svg>
